<mxfile host="app.diagrams.net" modified="2022-01-11T09:30:30.505Z" agent="5.0 (Windows NT 10.0; WOW64) AppleWebKit/537.36 (KHTML, like Gecko) Chrome/96.0.4664.110 Safari/537.36 OPR/82.0.4227.43" etag="ETyZb1wsai01NH2v1Llu" version="16.2.4" type="github" pages="4">
  <diagram id="Mg-7p7_yroY5iAryy3Pt" name="use case diagram">
    <mxGraphModel dx="1382" dy="764" grid="1" gridSize="10" guides="1" tooltips="1" connect="1" arrows="1" fold="1" page="1" pageScale="1" pageWidth="827" pageHeight="1169" math="0" shadow="0">
      <root>
        <mxCell id="0" />
        <mxCell id="1" parent="0" />
        <mxCell id="0DeJJJKvhB5ZLewfK-v5-3" value="" style="edgeStyle=orthogonalEdgeStyle;rounded=0;orthogonalLoop=1;jettySize=auto;html=1;" edge="1" parent="1" source="0DeJJJKvhB5ZLewfK-v5-1">
          <mxGeometry relative="1" as="geometry">
            <mxPoint x="85" y="190" as="targetPoint" />
            <Array as="points">
              <mxPoint x="85" y="180" />
            </Array>
          </mxGeometry>
        </mxCell>
        <mxCell id="0DeJJJKvhB5ZLewfK-v5-1" value="Клиент" style="shape=umlActor;verticalLabelPosition=bottom;verticalAlign=top;html=1;" vertex="1" parent="1">
          <mxGeometry x="70" y="20" width="30" height="60" as="geometry" />
        </mxCell>
        <mxCell id="0DeJJJKvhB5ZLewfK-v5-9" value="" style="edgeStyle=orthogonalEdgeStyle;rounded=0;orthogonalLoop=1;jettySize=auto;html=1;" edge="1" parent="1" source="0DeJJJKvhB5ZLewfK-v5-5">
          <mxGeometry relative="1" as="geometry">
            <mxPoint x="85" y="360" as="targetPoint" />
          </mxGeometry>
        </mxCell>
        <mxCell id="0DeJJJKvhB5ZLewfK-v5-5" value="Оплата товара" style="ellipse;whiteSpace=wrap;html=1;" vertex="1" parent="1">
          <mxGeometry x="45" y="190" width="80" height="60" as="geometry" />
        </mxCell>
        <mxCell id="0DeJJJKvhB5ZLewfK-v5-45" value="" style="edgeStyle=orthogonalEdgeStyle;rounded=0;orthogonalLoop=1;jettySize=auto;html=1;" edge="1" parent="1" source="0DeJJJKvhB5ZLewfK-v5-10" target="0DeJJJKvhB5ZLewfK-v5-44">
          <mxGeometry relative="1" as="geometry" />
        </mxCell>
        <mxCell id="0DeJJJKvhB5ZLewfK-v5-10" value="Касса" style="rounded=0;whiteSpace=wrap;html=1;" vertex="1" parent="1">
          <mxGeometry x="25" y="360" width="120" height="60" as="geometry" />
        </mxCell>
        <mxCell id="0DeJJJKvhB5ZLewfK-v5-13" value="" style="endArrow=classic;html=1;rounded=0;exitX=0.3;exitY=0;exitDx=0;exitDy=0;exitPerimeter=0;" edge="1" parent="1" source="0DeJJJKvhB5ZLewfK-v5-14" target="0DeJJJKvhB5ZLewfK-v5-1">
          <mxGeometry width="50" height="50" relative="1" as="geometry">
            <mxPoint x="180" y="100" as="sourcePoint" />
            <mxPoint x="195" y="20" as="targetPoint" />
            <Array as="points">
              <mxPoint x="120" y="70" />
            </Array>
          </mxGeometry>
        </mxCell>
        <mxCell id="0DeJJJKvhB5ZLewfK-v5-14" value="Выдача товара" style="ellipse;whiteSpace=wrap;html=1;" vertex="1" parent="1">
          <mxGeometry x="100" y="110" width="120" height="70" as="geometry" />
        </mxCell>
        <mxCell id="0DeJJJKvhB5ZLewfK-v5-24" value="" style="edgeStyle=orthogonalEdgeStyle;rounded=0;orthogonalLoop=1;jettySize=auto;html=1;" edge="1" parent="1" source="0DeJJJKvhB5ZLewfK-v5-18" target="0DeJJJKvhB5ZLewfK-v5-1">
          <mxGeometry relative="1" as="geometry" />
        </mxCell>
        <mxCell id="0DeJJJKvhB5ZLewfK-v5-18" value="Наличие товара&amp;nbsp;&lt;br&gt;на&lt;br&gt;складе" style="ellipse;whiteSpace=wrap;html=1;verticalAlign=top;" vertex="1" parent="1">
          <mxGeometry x="140" y="20" width="120" height="60" as="geometry" />
        </mxCell>
        <mxCell id="0DeJJJKvhB5ZLewfK-v5-25" value="" style="endArrow=open;endFill=1;endSize=12;html=1;rounded=0;entryX=0.633;entryY=0.783;entryDx=0;entryDy=0;entryPerimeter=0;" edge="1" parent="1" target="0DeJJJKvhB5ZLewfK-v5-1">
          <mxGeometry width="160" relative="1" as="geometry">
            <mxPoint x="280" y="120" as="sourcePoint" />
            <mxPoint x="320" y="90" as="targetPoint" />
          </mxGeometry>
        </mxCell>
        <mxCell id="0DeJJJKvhB5ZLewfK-v5-26" value="Выбор&lt;br&gt;продукции" style="ellipse;whiteSpace=wrap;html=1;" vertex="1" parent="1">
          <mxGeometry x="250" y="80" width="90" height="80" as="geometry" />
        </mxCell>
        <mxCell id="0DeJJJKvhB5ZLewfK-v5-27" value="" style="endArrow=open;endFill=1;endSize=12;html=1;rounded=0;" edge="1" parent="1">
          <mxGeometry width="160" relative="1" as="geometry">
            <mxPoint x="340" y="119.5" as="sourcePoint" />
            <mxPoint x="430" y="120" as="targetPoint" />
          </mxGeometry>
        </mxCell>
        <mxCell id="0DeJJJKvhB5ZLewfK-v5-32" value="" style="edgeStyle=orthogonalEdgeStyle;rounded=0;orthogonalLoop=1;jettySize=auto;html=1;entryX=0.683;entryY=1.014;entryDx=0;entryDy=0;entryPerimeter=0;" edge="1" parent="1" source="0DeJJJKvhB5ZLewfK-v5-28" target="0DeJJJKvhB5ZLewfK-v5-14">
          <mxGeometry relative="1" as="geometry">
            <mxPoint x="445" y="240" as="targetPoint" />
            <Array as="points">
              <mxPoint x="445" y="181" />
            </Array>
          </mxGeometry>
        </mxCell>
        <mxCell id="0DeJJJKvhB5ZLewfK-v5-51" value="" style="edgeStyle=orthogonalEdgeStyle;rounded=0;orthogonalLoop=1;jettySize=auto;html=1;" edge="1" parent="1" source="0DeJJJKvhB5ZLewfK-v5-28" target="0DeJJJKvhB5ZLewfK-v5-50">
          <mxGeometry relative="1" as="geometry" />
        </mxCell>
        <mxCell id="0DeJJJKvhB5ZLewfK-v5-28" value="Продавец" style="shape=umlActor;verticalLabelPosition=bottom;verticalAlign=top;html=1;" vertex="1" parent="1">
          <mxGeometry x="430" y="90" width="30" height="60" as="geometry" />
        </mxCell>
        <mxCell id="0DeJJJKvhB5ZLewfK-v5-41" value="" style="endArrow=classic;html=1;rounded=0;" edge="1" parent="1" target="0DeJJJKvhB5ZLewfK-v5-18">
          <mxGeometry width="50" height="50" relative="1" as="geometry">
            <mxPoint x="440" y="90" as="sourcePoint" />
            <mxPoint x="440" y="20" as="targetPoint" />
            <Array as="points">
              <mxPoint x="360" y="50" />
            </Array>
          </mxGeometry>
        </mxCell>
        <mxCell id="0DeJJJKvhB5ZLewfK-v5-47" value="" style="edgeStyle=orthogonalEdgeStyle;rounded=0;orthogonalLoop=1;jettySize=auto;html=1;" edge="1" parent="1" source="0DeJJJKvhB5ZLewfK-v5-44" target="0DeJJJKvhB5ZLewfK-v5-28">
          <mxGeometry relative="1" as="geometry">
            <mxPoint x="440" y="280" as="targetPoint" />
            <Array as="points">
              <mxPoint x="440" y="255" />
              <mxPoint x="460" y="255" />
            </Array>
          </mxGeometry>
        </mxCell>
        <mxCell id="0DeJJJKvhB5ZLewfK-v5-44" value="Отчет о оплате" style="rounded=0;whiteSpace=wrap;html=1;" vertex="1" parent="1">
          <mxGeometry x="380" y="360" width="120" height="60" as="geometry" />
        </mxCell>
        <mxCell id="0DeJJJKvhB5ZLewfK-v5-53" value="" style="edgeStyle=orthogonalEdgeStyle;rounded=0;orthogonalLoop=1;jettySize=auto;html=1;" edge="1" parent="1" source="0DeJJJKvhB5ZLewfK-v5-50" target="0DeJJJKvhB5ZLewfK-v5-52">
          <mxGeometry relative="1" as="geometry" />
        </mxCell>
        <mxCell id="0DeJJJKvhB5ZLewfK-v5-50" value="&lt;div&gt;&lt;span&gt;Наличие&amp;nbsp;&lt;/span&gt;&lt;/div&gt;&lt;div&gt;&lt;span&gt;товара&lt;/span&gt;&lt;/div&gt;" style="ellipse;whiteSpace=wrap;html=1;verticalAlign=top;align=center;" vertex="1" parent="1">
          <mxGeometry x="510" y="95" width="105" height="50" as="geometry" />
        </mxCell>
        <mxCell id="0DeJJJKvhB5ZLewfK-v5-55" value="" style="edgeStyle=orthogonalEdgeStyle;rounded=0;orthogonalLoop=1;jettySize=auto;html=1;fontFamily=Georgia;fontSize=14;" edge="1" parent="1" source="0DeJJJKvhB5ZLewfK-v5-52" target="0DeJJJKvhB5ZLewfK-v5-54">
          <mxGeometry relative="1" as="geometry" />
        </mxCell>
        <mxCell id="0DeJJJKvhB5ZLewfK-v5-52" value="&lt;font face=&quot;Comic Sans MS&quot;&gt;&lt;font style=&quot;font-size: 14px&quot;&gt;&lt;br&gt;&lt;/font&gt;&lt;font size=&quot;3&quot;&gt;Склад&lt;/font&gt;&lt;/font&gt;" style="shape=hexagon;perimeter=hexagonPerimeter2;whiteSpace=wrap;html=1;fixedSize=1;verticalAlign=top;" vertex="1" parent="1">
          <mxGeometry x="670" y="82.5" width="120" height="75" as="geometry" />
        </mxCell>
        <mxCell id="0DeJJJKvhB5ZLewfK-v5-54" value="Отчет о&lt;br&gt;наличии&lt;br&gt;товара" style="ellipse;whiteSpace=wrap;html=1;verticalAlign=top;" vertex="1" parent="1">
          <mxGeometry x="580" y="230" width="120" height="60" as="geometry" />
        </mxCell>
        <mxCell id="0DeJJJKvhB5ZLewfK-v5-59" value="" style="endArrow=open;endFill=1;endSize=12;html=1;rounded=0;fontFamily=Comic Sans MS;fontSize=14;exitX=0;exitY=0.5;exitDx=0;exitDy=0;" edge="1" parent="1" source="0DeJJJKvhB5ZLewfK-v5-54">
          <mxGeometry width="160" relative="1" as="geometry">
            <mxPoint x="495" y="230" as="sourcePoint" />
            <mxPoint x="465" y="140" as="targetPoint" />
            <Array as="points">
              <mxPoint x="485" y="190" />
            </Array>
          </mxGeometry>
        </mxCell>
      </root>
    </mxGraphModel>
  </diagram>
  <diagram id="jHaqy8f9fSbicsdTcTN1" name="Page-2">
    <mxGraphModel dx="2209" dy="764" grid="1" gridSize="10" guides="1" tooltips="1" connect="1" arrows="1" fold="1" page="1" pageScale="1" pageWidth="827" pageHeight="1169" math="0" shadow="0">
      <root>
        <mxCell id="kf9sjzUpPVL5YNyt-hcT-0" />
        <mxCell id="kf9sjzUpPVL5YNyt-hcT-1" parent="kf9sjzUpPVL5YNyt-hcT-0" />
        <mxCell id="xIHFGPNqID9P1mUKi1tC-0" value="Потенциальный&lt;br&gt;клиент" style="shape=umlActor;verticalLabelPosition=bottom;verticalAlign=top;html=1;fontFamily=Comic Sans MS;fontSize=14;" vertex="1" parent="kf9sjzUpPVL5YNyt-hcT-1">
          <mxGeometry x="50" y="100" width="30" height="60" as="geometry" />
        </mxCell>
        <mxCell id="xIHFGPNqID9P1mUKi1tC-1" value="&lt;font style=&quot;font-size: 18px&quot;&gt;&lt;b&gt;&amp;nbsp; &amp;nbsp; &amp;nbsp; &amp;nbsp; &amp;nbsp; &amp;nbsp; &amp;nbsp; &amp;nbsp; &amp;nbsp; &amp;nbsp; &amp;nbsp; &amp;nbsp;Диаграмма взаимодействия&lt;/b&gt;&lt;/font&gt;" style="text;html=1;align=center;verticalAlign=middle;resizable=0;points=[];autosize=1;strokeColor=none;fillColor=none;fontSize=14;fontFamily=Comic Sans MS;" vertex="1" parent="kf9sjzUpPVL5YNyt-hcT-1">
          <mxGeometry x="125" y="10" width="450" height="20" as="geometry" />
        </mxCell>
        <mxCell id="xIHFGPNqID9P1mUKi1tC-4" value="Коммерческий&lt;br&gt;отдел" style="rounded=1;whiteSpace=wrap;html=1;fontFamily=Comic Sans MS;fontSize=12;" vertex="1" parent="kf9sjzUpPVL5YNyt-hcT-1">
          <mxGeometry x="140" y="90" width="120" height="60" as="geometry" />
        </mxCell>
        <mxCell id="xIHFGPNqID9P1mUKi1tC-18" value="" style="edgeStyle=orthogonalEdgeStyle;rounded=0;orthogonalLoop=1;jettySize=auto;html=1;fontFamily=Comic Sans MS;fontSize=12;" edge="1" parent="kf9sjzUpPVL5YNyt-hcT-1" source="xIHFGPNqID9P1mUKi1tC-5" target="xIHFGPNqID9P1mUKi1tC-15">
          <mxGeometry relative="1" as="geometry" />
        </mxCell>
        <mxCell id="xIHFGPNqID9P1mUKi1tC-5" value="Отдел обслуживания&lt;br&gt;и&lt;br&gt;сбыта" style="rounded=1;whiteSpace=wrap;html=1;fontFamily=Comic Sans MS;fontSize=12;" vertex="1" parent="kf9sjzUpPVL5YNyt-hcT-1">
          <mxGeometry x="290" y="90" width="120" height="60" as="geometry" />
        </mxCell>
        <mxCell id="xIHFGPNqID9P1mUKi1tC-19" value="" style="edgeStyle=orthogonalEdgeStyle;rounded=0;orthogonalLoop=1;jettySize=auto;html=1;fontFamily=Comic Sans MS;fontSize=12;" edge="1" parent="kf9sjzUpPVL5YNyt-hcT-1" source="xIHFGPNqID9P1mUKi1tC-6" target="xIHFGPNqID9P1mUKi1tC-16">
          <mxGeometry relative="1" as="geometry" />
        </mxCell>
        <mxCell id="xIHFGPNqID9P1mUKi1tC-6" value="Транспортно-&lt;br&gt;хозяйственный&lt;br&gt;участок" style="rounded=1;whiteSpace=wrap;html=1;fontFamily=Comic Sans MS;fontSize=12;" vertex="1" parent="kf9sjzUpPVL5YNyt-hcT-1">
          <mxGeometry x="450" y="90" width="120" height="60" as="geometry" />
        </mxCell>
        <mxCell id="xIHFGPNqID9P1mUKi1tC-7" value="Перевозчик" style="rounded=1;whiteSpace=wrap;html=1;fontFamily=Comic Sans MS;fontSize=12;" vertex="1" parent="kf9sjzUpPVL5YNyt-hcT-1">
          <mxGeometry x="610" y="90" width="120" height="60" as="geometry" />
        </mxCell>
        <mxCell id="xIHFGPNqID9P1mUKi1tC-22" style="edgeStyle=orthogonalEdgeStyle;rounded=0;orthogonalLoop=1;jettySize=auto;html=1;entryX=0.223;entryY=1.011;entryDx=0;entryDy=0;entryPerimeter=0;fontFamily=Comic Sans MS;fontSize=10;exitX=0.206;exitY=-0.078;exitDx=0;exitDy=0;exitPerimeter=0;" edge="1" parent="kf9sjzUpPVL5YNyt-hcT-1" source="xIHFGPNqID9P1mUKi1tC-8" target="xIHFGPNqID9P1mUKi1tC-15">
          <mxGeometry relative="1" as="geometry">
            <Array as="points">
              <mxPoint x="209" y="281" />
              <mxPoint x="209" y="279" />
            </Array>
          </mxGeometry>
        </mxCell>
        <mxCell id="xIHFGPNqID9P1mUKi1tC-8" value="" style="rounded=0;whiteSpace=wrap;html=1;fontFamily=Comic Sans MS;fontSize=12;rotation=90;" vertex="1" parent="kf9sjzUpPVL5YNyt-hcT-1">
          <mxGeometry x="-107.5" y="371.25" width="345" height="22.5" as="geometry" />
        </mxCell>
        <mxCell id="xIHFGPNqID9P1mUKi1tC-13" value="" style="endArrow=none;dashed=1;html=1;rounded=0;fontFamily=Comic Sans MS;fontSize=12;" edge="1" parent="kf9sjzUpPVL5YNyt-hcT-1">
          <mxGeometry width="50" height="50" relative="1" as="geometry">
            <mxPoint x="200" y="230" as="sourcePoint" />
            <mxPoint x="200" y="150" as="targetPoint" />
          </mxGeometry>
        </mxCell>
        <mxCell id="xIHFGPNqID9P1mUKi1tC-20" style="edgeStyle=orthogonalEdgeStyle;rounded=0;orthogonalLoop=1;jettySize=auto;html=1;entryX=0.099;entryY=0.011;entryDx=0;entryDy=0;entryPerimeter=0;fontFamily=Comic Sans MS;fontSize=12;" edge="1" parent="kf9sjzUpPVL5YNyt-hcT-1" target="xIHFGPNqID9P1mUKi1tC-8">
          <mxGeometry relative="1" as="geometry">
            <mxPoint x="180" y="244" as="sourcePoint" />
            <Array as="points">
              <mxPoint x="133" y="244" />
            </Array>
          </mxGeometry>
        </mxCell>
        <mxCell id="xIHFGPNqID9P1mUKi1tC-14" value="" style="rounded=0;whiteSpace=wrap;html=1;fontFamily=Comic Sans MS;fontSize=12;rotation=90;" vertex="1" parent="kf9sjzUpPVL5YNyt-hcT-1">
          <mxGeometry x="41.88" y="385.63" width="316.25" height="22.5" as="geometry" />
        </mxCell>
        <mxCell id="xIHFGPNqID9P1mUKi1tC-25" style="edgeStyle=orthogonalEdgeStyle;rounded=0;orthogonalLoop=1;jettySize=auto;html=1;entryX=0.484;entryY=-0.033;entryDx=0;entryDy=0;entryPerimeter=0;fontFamily=Comic Sans MS;fontSize=10;" edge="1" parent="kf9sjzUpPVL5YNyt-hcT-1" source="xIHFGPNqID9P1mUKi1tC-15" target="xIHFGPNqID9P1mUKi1tC-8">
          <mxGeometry relative="1" as="geometry">
            <Array as="points">
              <mxPoint x="200" y="377" />
              <mxPoint x="200" y="377" />
            </Array>
          </mxGeometry>
        </mxCell>
        <mxCell id="xIHFGPNqID9P1mUKi1tC-15" value="" style="rounded=0;whiteSpace=wrap;html=1;fontFamily=Comic Sans MS;fontSize=12;rotation=90;" vertex="1" parent="kf9sjzUpPVL5YNyt-hcT-1">
          <mxGeometry x="175" y="366.25" width="355" height="22.5" as="geometry" />
        </mxCell>
        <mxCell id="xIHFGPNqID9P1mUKi1tC-16" value="" style="rounded=0;whiteSpace=wrap;html=1;fontFamily=Comic Sans MS;fontSize=12;rotation=90;" vertex="1" parent="kf9sjzUpPVL5YNyt-hcT-1">
          <mxGeometry x="338.13" y="368.13" width="355" height="18.75" as="geometry" />
        </mxCell>
        <mxCell id="xIHFGPNqID9P1mUKi1tC-17" value="" style="rounded=0;whiteSpace=wrap;html=1;fontFamily=Comic Sans MS;fontSize=12;rotation=90;" vertex="1" parent="kf9sjzUpPVL5YNyt-hcT-1">
          <mxGeometry x="490.32" y="360.95" width="355" height="26.87" as="geometry" />
        </mxCell>
        <mxCell id="xIHFGPNqID9P1mUKi1tC-21" value="&lt;font style=&quot;font-size: 10px&quot;&gt;Поиск покупателей&lt;/font&gt;" style="text;html=1;align=center;verticalAlign=middle;resizable=0;points=[];autosize=1;strokeColor=none;fillColor=none;fontSize=12;fontFamily=Comic Sans MS;" vertex="1" parent="kf9sjzUpPVL5YNyt-hcT-1">
          <mxGeometry x="80" y="220" width="110" height="20" as="geometry" />
        </mxCell>
        <mxCell id="xIHFGPNqID9P1mUKi1tC-23" value="&amp;nbsp; &amp;nbsp; &amp;nbsp; &amp;nbsp; &amp;nbsp; &amp;nbsp; &amp;nbsp; &amp;nbsp; &amp;nbsp; &amp;nbsp; &amp;nbsp; &amp;nbsp; &amp;nbsp; &amp;nbsp; &amp;nbsp; Звонок в компанию" style="text;html=1;align=center;verticalAlign=middle;resizable=0;points=[];autosize=1;strokeColor=none;fillColor=none;fontSize=10;fontFamily=Comic Sans MS;" vertex="1" parent="kf9sjzUpPVL5YNyt-hcT-1">
          <mxGeometry x="-10" y="260" width="200" height="20" as="geometry" />
        </mxCell>
        <mxCell id="xIHFGPNqID9P1mUKi1tC-24" value="&amp;nbsp; &amp;nbsp; &amp;nbsp; &amp;nbsp; &amp;nbsp; &amp;nbsp; &amp;nbsp; &amp;nbsp; &amp;nbsp; &amp;nbsp; &amp;nbsp; &amp;nbsp; &amp;nbsp; &amp;nbsp; &amp;nbsp; &amp;nbsp; &amp;nbsp;и выбор товара" style="text;html=1;align=center;verticalAlign=middle;resizable=0;points=[];autosize=1;strokeColor=none;fillColor=none;fontSize=10;fontFamily=Comic Sans MS;" vertex="1" parent="kf9sjzUpPVL5YNyt-hcT-1">
          <mxGeometry x="125" y="260" width="190" height="20" as="geometry" />
        </mxCell>
        <mxCell id="xIHFGPNqID9P1mUKi1tC-26" value="&amp;nbsp; &amp;nbsp; &amp;nbsp; &amp;nbsp; &amp;nbsp; &amp;nbsp; &amp;nbsp; &amp;nbsp; &amp;nbsp; &amp;nbsp; &amp;nbsp; &amp;nbsp; &amp;nbsp; &amp;nbsp;Предоставление&amp;nbsp;" style="text;html=1;align=center;verticalAlign=middle;resizable=0;points=[];autosize=1;strokeColor=none;fillColor=none;fontSize=10;fontFamily=Comic Sans MS;" vertex="1" parent="kf9sjzUpPVL5YNyt-hcT-1">
          <mxGeometry y="360" width="180" height="20" as="geometry" />
        </mxCell>
        <mxCell id="xIHFGPNqID9P1mUKi1tC-28" value="&lt;br&gt;&amp;nbsp; &amp;nbsp; &amp;nbsp;&amp;nbsp;&lt;br&gt;&amp;nbsp; &amp;nbsp; &amp;nbsp; &amp;nbsp;информации об&lt;br&gt;&amp;nbsp; &amp;nbsp; &amp;nbsp;ассортименте" style="text;html=1;align=center;verticalAlign=middle;resizable=0;points=[];autosize=1;strokeColor=none;fillColor=none;fontSize=10;fontFamily=Comic Sans MS;" vertex="1" parent="kf9sjzUpPVL5YNyt-hcT-1">
          <mxGeometry x="205" y="325" width="110" height="50" as="geometry" />
        </mxCell>
        <mxCell id="xIHFGPNqID9P1mUKi1tC-31" value="" style="endArrow=classic;html=1;rounded=0;fontFamily=Comic Sans MS;fontSize=10;entryX=0.727;entryY=1.011;entryDx=0;entryDy=0;entryPerimeter=0;" edge="1" parent="kf9sjzUpPVL5YNyt-hcT-1" target="xIHFGPNqID9P1mUKi1tC-16">
          <mxGeometry width="50" height="50" relative="1" as="geometry">
            <mxPoint x="80" y="458.13" as="sourcePoint" />
            <mxPoint x="130" y="408.13" as="targetPoint" />
          </mxGeometry>
        </mxCell>
        <mxCell id="xIHFGPNqID9P1mUKi1tC-32" value="&amp;nbsp; &amp;nbsp; &amp;nbsp; &amp;nbsp; &amp;nbsp; &amp;nbsp; &amp;nbsp; &amp;nbsp; &amp;nbsp; &amp;nbsp; &amp;nbsp; &amp;nbsp; &amp;nbsp; &amp;nbsp; &amp;nbsp; &amp;nbsp; &amp;nbsp; &amp;nbsp; &amp;nbsp; &amp;nbsp;Оплата заказа&lt;br&gt;&amp;nbsp; &amp;nbsp; &amp;nbsp; &amp;nbsp; &amp;nbsp; &amp;nbsp; &amp;nbsp; &amp;nbsp; &amp;nbsp; &amp;nbsp; &amp;nbsp; &amp;nbsp; &amp;nbsp; &amp;nbsp; &amp;nbsp; &amp;nbsp; &amp;nbsp; &amp;nbsp; &amp;nbsp;и получение" style="text;html=1;align=center;verticalAlign=middle;resizable=0;points=[];autosize=1;strokeColor=none;fillColor=none;fontSize=10;fontFamily=Comic Sans MS;" vertex="1" parent="kf9sjzUpPVL5YNyt-hcT-1">
          <mxGeometry x="280" y="425" width="200" height="30" as="geometry" />
        </mxCell>
        <mxCell id="xIHFGPNqID9P1mUKi1tC-34" value="" style="endArrow=classic;html=1;rounded=0;fontFamily=Comic Sans MS;fontSize=10;entryX=0.904;entryY=0.011;entryDx=0;entryDy=0;entryPerimeter=0;" edge="1" parent="kf9sjzUpPVL5YNyt-hcT-1" target="xIHFGPNqID9P1mUKi1tC-8">
          <mxGeometry width="50" height="50" relative="1" as="geometry">
            <mxPoint x="650" y="522" as="sourcePoint" />
            <mxPoint x="650" y="470" as="targetPoint" />
          </mxGeometry>
        </mxCell>
        <mxCell id="xIHFGPNqID9P1mUKi1tC-35" value="&amp;nbsp; &amp;nbsp; &amp;nbsp; &amp;nbsp; &amp;nbsp; &amp;nbsp; &amp;nbsp; &amp;nbsp; &amp;nbsp; &amp;nbsp; &amp;nbsp; &amp;nbsp; &amp;nbsp; &amp;nbsp; &amp;nbsp; &amp;nbsp; &amp;nbsp; &amp;nbsp; Передача заказа клиенту," style="text;html=1;align=center;verticalAlign=middle;resizable=0;points=[];autosize=1;strokeColor=none;fillColor=none;fontSize=10;fontFamily=Comic Sans MS;" vertex="1" parent="kf9sjzUpPVL5YNyt-hcT-1">
          <mxGeometry x="255" y="490" width="250" height="20" as="geometry" />
        </mxCell>
        <mxCell id="xIHFGPNqID9P1mUKi1tC-37" value="&amp;nbsp; &amp;nbsp; &amp;nbsp; &amp;nbsp; &amp;nbsp; &amp;nbsp; &amp;nbsp; &amp;nbsp; &amp;nbsp; &amp;nbsp; &amp;nbsp; &amp;nbsp; &amp;nbsp; &amp;nbsp; &amp;nbsp; &amp;nbsp;&lt;br&gt;&lt;br&gt;&amp;nbsp; &amp;nbsp; &amp;nbsp; &amp;nbsp; &amp;nbsp; &amp;nbsp; &amp;nbsp; &amp;nbsp; &amp;nbsp; &amp;nbsp; &amp;nbsp; &amp;nbsp; &amp;nbsp; &amp;nbsp; &amp;nbsp; получение денег" style="text;html=1;align=center;verticalAlign=middle;resizable=0;points=[];autosize=1;strokeColor=none;fillColor=none;fontSize=10;fontFamily=Comic Sans MS;" vertex="1" parent="kf9sjzUpPVL5YNyt-hcT-1">
          <mxGeometry x="445" y="470" width="190" height="40" as="geometry" />
        </mxCell>
        <mxCell id="xIHFGPNqID9P1mUKi1tC-40" value="&lt;br&gt;&amp;nbsp; &amp;nbsp; &amp;nbsp; &amp;nbsp; &amp;nbsp; &amp;nbsp; &amp;nbsp; &amp;nbsp; &amp;nbsp; &amp;nbsp; &amp;nbsp; &amp;nbsp; &amp;nbsp;&amp;nbsp;" style="text;html=1;align=center;verticalAlign=middle;resizable=0;points=[];autosize=1;strokeColor=none;fillColor=none;fontSize=10;fontFamily=Comic Sans MS;" vertex="1" parent="kf9sjzUpPVL5YNyt-hcT-1">
          <mxGeometry x="495" y="315" width="90" height="30" as="geometry" />
        </mxCell>
        <mxCell id="xIHFGPNqID9P1mUKi1tC-41" value="" style="endArrow=classic;html=1;rounded=0;fontFamily=Comic Sans MS;fontSize=10;entryX=0.42;entryY=0.94;entryDx=0;entryDy=0;entryPerimeter=0;" edge="1" parent="kf9sjzUpPVL5YNyt-hcT-1" target="xIHFGPNqID9P1mUKi1tC-17">
          <mxGeometry width="50" height="50" relative="1" as="geometry">
            <mxPoint x="525" y="345" as="sourcePoint" />
            <mxPoint x="575" y="295" as="targetPoint" />
          </mxGeometry>
        </mxCell>
        <mxCell id="xIHFGPNqID9P1mUKi1tC-42" value="&lt;br&gt;&lt;br&gt;&lt;br&gt;&amp;nbsp; &amp;nbsp; &amp;nbsp; &lt;br&gt;&amp;nbsp; &amp;nbsp; &amp;nbsp; &amp;nbsp; Снаряжение грузом&lt;br&gt;&amp;nbsp; &amp;nbsp; &amp;nbsp; и&lt;br&gt;&amp;nbsp; &amp;nbsp; &amp;nbsp; &amp;nbsp; &amp;nbsp;инструкций" style="text;html=1;align=center;verticalAlign=middle;resizable=0;points=[];autosize=1;strokeColor=none;fillColor=none;fontSize=10;fontFamily=Comic Sans MS;" vertex="1" parent="kf9sjzUpPVL5YNyt-hcT-1">
          <mxGeometry x="505" y="255" width="130" height="90" as="geometry" />
        </mxCell>
        <mxCell id="xIHFGPNqID9P1mUKi1tC-44" value="" style="endArrow=classic;html=1;rounded=0;fontFamily=Comic Sans MS;fontSize=10;entryX=0.015;entryY=0.278;entryDx=0;entryDy=0;entryPerimeter=0;" edge="1" parent="kf9sjzUpPVL5YNyt-hcT-1" target="xIHFGPNqID9P1mUKi1tC-42">
          <mxGeometry width="50" height="50" relative="1" as="geometry">
            <mxPoint x="364" y="280" as="sourcePoint" />
            <mxPoint x="414" y="230" as="targetPoint" />
          </mxGeometry>
        </mxCell>
        <mxCell id="xIHFGPNqID9P1mUKi1tC-45" value="&amp;nbsp; &amp;nbsp; &amp;nbsp; &amp;nbsp; &amp;nbsp; &amp;nbsp; &amp;nbsp; &amp;nbsp; &amp;nbsp; &amp;nbsp; &amp;nbsp; &amp;nbsp; &amp;nbsp; &amp;nbsp; &amp;nbsp; &amp;nbsp; &amp;nbsp; &amp;nbsp;Предоставление информации&lt;br&gt;&amp;nbsp; &amp;nbsp; &amp;nbsp; &amp;nbsp; &amp;nbsp; &amp;nbsp; &amp;nbsp; &amp;nbsp; &amp;nbsp; &amp;nbsp; &amp;nbsp; &amp;nbsp; &amp;nbsp; &amp;nbsp; &amp;nbsp; &amp;nbsp; &amp;nbsp; &amp;nbsp; &amp;nbsp; о&lt;br&gt;&amp;nbsp; &amp;nbsp; &amp;nbsp; &amp;nbsp; &amp;nbsp; &amp;nbsp; &amp;nbsp; &amp;nbsp; &amp;nbsp; &amp;nbsp; &amp;nbsp; &amp;nbsp; &amp;nbsp; &amp;nbsp; &amp;nbsp; &amp;nbsp; &amp;nbsp; &amp;nbsp; &amp;nbsp; заказе и клиенте" style="text;html=1;align=center;verticalAlign=middle;resizable=0;points=[];autosize=1;strokeColor=none;fillColor=none;fontSize=10;fontFamily=Comic Sans MS;" vertex="1" parent="kf9sjzUpPVL5YNyt-hcT-1">
          <mxGeometry x="245" y="220" width="270" height="40" as="geometry" />
        </mxCell>
        <mxCell id="xIHFGPNqID9P1mUKi1tC-46" value="" style="endArrow=classic;html=1;rounded=0;fontFamily=Comic Sans MS;fontSize=10;" edge="1" parent="kf9sjzUpPVL5YNyt-hcT-1" target="xIHFGPNqID9P1mUKi1tC-47">
          <mxGeometry width="50" height="50" relative="1" as="geometry">
            <mxPoint x="364" y="380" as="sourcePoint" />
            <mxPoint x="400" y="380" as="targetPoint" />
          </mxGeometry>
        </mxCell>
        <mxCell id="xIHFGPNqID9P1mUKi1tC-49" value="" style="edgeStyle=orthogonalEdgeStyle;rounded=0;orthogonalLoop=1;jettySize=auto;html=1;fontFamily=Comic Sans MS;fontSize=10;" edge="1" parent="kf9sjzUpPVL5YNyt-hcT-1" source="xIHFGPNqID9P1mUKi1tC-47">
          <mxGeometry relative="1" as="geometry">
            <mxPoint x="650" y="383" as="targetPoint" />
          </mxGeometry>
        </mxCell>
        <mxCell id="xIHFGPNqID9P1mUKi1tC-47" value="Заказ" style="rounded=0;whiteSpace=wrap;html=1;fontFamily=Comic Sans MS;fontSize=10;" vertex="1" parent="kf9sjzUpPVL5YNyt-hcT-1">
          <mxGeometry x="375" y="352.5" width="65" height="60" as="geometry" />
        </mxCell>
        <mxCell id="xIHFGPNqID9P1mUKi1tC-50" value="&amp;nbsp; &amp;nbsp; &amp;nbsp; &amp;nbsp; &amp;nbsp; &amp;nbsp; &amp;nbsp; &lt;br&gt;&amp;nbsp; &amp;nbsp; &amp;nbsp; &amp;nbsp; &lt;br&gt;&amp;nbsp; &amp;nbsp; &amp;nbsp; &amp;nbsp; &amp;nbsp; &amp;nbsp; &amp;nbsp; &amp;nbsp; Создать()" style="text;html=1;align=center;verticalAlign=middle;resizable=0;points=[];autosize=1;strokeColor=none;fillColor=none;fontSize=10;fontFamily=Comic Sans MS;" vertex="1" parent="kf9sjzUpPVL5YNyt-hcT-1">
          <mxGeometry x="325" y="310" width="110" height="40" as="geometry" />
        </mxCell>
        <mxCell id="VdGTEWWh9yA-w1CZP-0m-0" value="" style="edgeStyle=orthogonalEdgeStyle;rounded=0;orthogonalLoop=1;jettySize=auto;html=1;" edge="1" parent="kf9sjzUpPVL5YNyt-hcT-1" source="VdGTEWWh9yA-w1CZP-0m-1">
          <mxGeometry relative="1" as="geometry">
            <mxPoint x="100" y="770" as="targetPoint" />
            <Array as="points">
              <mxPoint x="100" y="760" />
            </Array>
          </mxGeometry>
        </mxCell>
        <mxCell id="VdGTEWWh9yA-w1CZP-0m-1" value="Клиент" style="shape=umlActor;verticalLabelPosition=bottom;verticalAlign=top;html=1;" vertex="1" parent="kf9sjzUpPVL5YNyt-hcT-1">
          <mxGeometry x="85" y="600" width="30" height="60" as="geometry" />
        </mxCell>
        <mxCell id="VdGTEWWh9yA-w1CZP-0m-2" value="" style="edgeStyle=orthogonalEdgeStyle;rounded=0;orthogonalLoop=1;jettySize=auto;html=1;" edge="1" parent="kf9sjzUpPVL5YNyt-hcT-1" source="VdGTEWWh9yA-w1CZP-0m-3">
          <mxGeometry relative="1" as="geometry">
            <mxPoint x="100" y="940" as="targetPoint" />
          </mxGeometry>
        </mxCell>
        <mxCell id="VdGTEWWh9yA-w1CZP-0m-3" value="Оплата товара" style="ellipse;whiteSpace=wrap;html=1;" vertex="1" parent="kf9sjzUpPVL5YNyt-hcT-1">
          <mxGeometry x="60" y="770" width="80" height="60" as="geometry" />
        </mxCell>
        <mxCell id="VdGTEWWh9yA-w1CZP-0m-4" value="" style="edgeStyle=orthogonalEdgeStyle;rounded=0;orthogonalLoop=1;jettySize=auto;html=1;" edge="1" parent="kf9sjzUpPVL5YNyt-hcT-1" source="VdGTEWWh9yA-w1CZP-0m-5" target="VdGTEWWh9yA-w1CZP-0m-18">
          <mxGeometry relative="1" as="geometry" />
        </mxCell>
        <mxCell id="VdGTEWWh9yA-w1CZP-0m-5" value="Касса" style="rounded=0;whiteSpace=wrap;html=1;" vertex="1" parent="kf9sjzUpPVL5YNyt-hcT-1">
          <mxGeometry x="40" y="940" width="120" height="60" as="geometry" />
        </mxCell>
        <mxCell id="VdGTEWWh9yA-w1CZP-0m-6" value="" style="endArrow=classic;html=1;rounded=0;exitX=0.3;exitY=0;exitDx=0;exitDy=0;exitPerimeter=0;" edge="1" parent="kf9sjzUpPVL5YNyt-hcT-1" source="VdGTEWWh9yA-w1CZP-0m-7" target="VdGTEWWh9yA-w1CZP-0m-1">
          <mxGeometry width="50" height="50" relative="1" as="geometry">
            <mxPoint x="195" y="680" as="sourcePoint" />
            <mxPoint x="210" y="600" as="targetPoint" />
            <Array as="points">
              <mxPoint x="135" y="650" />
            </Array>
          </mxGeometry>
        </mxCell>
        <mxCell id="VdGTEWWh9yA-w1CZP-0m-7" value="Выдача товара" style="ellipse;whiteSpace=wrap;html=1;" vertex="1" parent="kf9sjzUpPVL5YNyt-hcT-1">
          <mxGeometry x="115" y="690" width="120" height="70" as="geometry" />
        </mxCell>
        <mxCell id="VdGTEWWh9yA-w1CZP-0m-8" value="" style="edgeStyle=orthogonalEdgeStyle;rounded=0;orthogonalLoop=1;jettySize=auto;html=1;" edge="1" parent="kf9sjzUpPVL5YNyt-hcT-1" source="VdGTEWWh9yA-w1CZP-0m-9" target="VdGTEWWh9yA-w1CZP-0m-1">
          <mxGeometry relative="1" as="geometry" />
        </mxCell>
        <mxCell id="VdGTEWWh9yA-w1CZP-0m-9" value="Наличие товара&amp;nbsp;&lt;br&gt;на&lt;br&gt;складе" style="ellipse;whiteSpace=wrap;html=1;verticalAlign=top;" vertex="1" parent="kf9sjzUpPVL5YNyt-hcT-1">
          <mxGeometry x="155" y="600" width="120" height="60" as="geometry" />
        </mxCell>
        <mxCell id="VdGTEWWh9yA-w1CZP-0m-10" value="" style="endArrow=open;endFill=1;endSize=12;html=1;rounded=0;entryX=0.633;entryY=0.783;entryDx=0;entryDy=0;entryPerimeter=0;" edge="1" parent="kf9sjzUpPVL5YNyt-hcT-1" target="VdGTEWWh9yA-w1CZP-0m-1">
          <mxGeometry width="160" relative="1" as="geometry">
            <mxPoint x="295" y="700" as="sourcePoint" />
            <mxPoint x="335" y="670" as="targetPoint" />
          </mxGeometry>
        </mxCell>
        <mxCell id="VdGTEWWh9yA-w1CZP-0m-11" value="Выбор&lt;br&gt;продукции" style="ellipse;whiteSpace=wrap;html=1;" vertex="1" parent="kf9sjzUpPVL5YNyt-hcT-1">
          <mxGeometry x="265" y="660" width="90" height="80" as="geometry" />
        </mxCell>
        <mxCell id="VdGTEWWh9yA-w1CZP-0m-12" value="" style="endArrow=open;endFill=1;endSize=12;html=1;rounded=0;" edge="1" parent="kf9sjzUpPVL5YNyt-hcT-1">
          <mxGeometry width="160" relative="1" as="geometry">
            <mxPoint x="355" y="699.5" as="sourcePoint" />
            <mxPoint x="445" y="700" as="targetPoint" />
          </mxGeometry>
        </mxCell>
        <mxCell id="VdGTEWWh9yA-w1CZP-0m-13" value="" style="edgeStyle=orthogonalEdgeStyle;rounded=0;orthogonalLoop=1;jettySize=auto;html=1;entryX=0.683;entryY=1.014;entryDx=0;entryDy=0;entryPerimeter=0;" edge="1" parent="kf9sjzUpPVL5YNyt-hcT-1" source="VdGTEWWh9yA-w1CZP-0m-15" target="VdGTEWWh9yA-w1CZP-0m-7">
          <mxGeometry relative="1" as="geometry">
            <mxPoint x="460" y="820" as="targetPoint" />
            <Array as="points">
              <mxPoint x="460" y="761" />
            </Array>
          </mxGeometry>
        </mxCell>
        <mxCell id="VdGTEWWh9yA-w1CZP-0m-14" value="" style="edgeStyle=orthogonalEdgeStyle;rounded=0;orthogonalLoop=1;jettySize=auto;html=1;" edge="1" parent="kf9sjzUpPVL5YNyt-hcT-1" source="VdGTEWWh9yA-w1CZP-0m-15" target="VdGTEWWh9yA-w1CZP-0m-20">
          <mxGeometry relative="1" as="geometry" />
        </mxCell>
        <mxCell id="VdGTEWWh9yA-w1CZP-0m-15" value="Продавец" style="shape=umlActor;verticalLabelPosition=bottom;verticalAlign=top;html=1;" vertex="1" parent="kf9sjzUpPVL5YNyt-hcT-1">
          <mxGeometry x="445" y="670" width="30" height="60" as="geometry" />
        </mxCell>
        <mxCell id="VdGTEWWh9yA-w1CZP-0m-16" value="" style="endArrow=classic;html=1;rounded=0;" edge="1" parent="kf9sjzUpPVL5YNyt-hcT-1" target="VdGTEWWh9yA-w1CZP-0m-9">
          <mxGeometry width="50" height="50" relative="1" as="geometry">
            <mxPoint x="455" y="670" as="sourcePoint" />
            <mxPoint x="455" y="600" as="targetPoint" />
            <Array as="points">
              <mxPoint x="375" y="630" />
            </Array>
          </mxGeometry>
        </mxCell>
        <mxCell id="VdGTEWWh9yA-w1CZP-0m-17" value="" style="edgeStyle=orthogonalEdgeStyle;rounded=0;orthogonalLoop=1;jettySize=auto;html=1;" edge="1" parent="kf9sjzUpPVL5YNyt-hcT-1" source="VdGTEWWh9yA-w1CZP-0m-18" target="VdGTEWWh9yA-w1CZP-0m-15">
          <mxGeometry relative="1" as="geometry">
            <mxPoint x="455" y="860" as="targetPoint" />
            <Array as="points">
              <mxPoint x="455" y="835" />
              <mxPoint x="475" y="835" />
            </Array>
          </mxGeometry>
        </mxCell>
        <mxCell id="VdGTEWWh9yA-w1CZP-0m-18" value="Отчет о оплате" style="rounded=0;whiteSpace=wrap;html=1;" vertex="1" parent="kf9sjzUpPVL5YNyt-hcT-1">
          <mxGeometry x="395" y="940" width="120" height="60" as="geometry" />
        </mxCell>
        <mxCell id="VdGTEWWh9yA-w1CZP-0m-19" value="" style="edgeStyle=orthogonalEdgeStyle;rounded=0;orthogonalLoop=1;jettySize=auto;html=1;" edge="1" parent="kf9sjzUpPVL5YNyt-hcT-1" source="VdGTEWWh9yA-w1CZP-0m-20" target="VdGTEWWh9yA-w1CZP-0m-22">
          <mxGeometry relative="1" as="geometry" />
        </mxCell>
        <mxCell id="VdGTEWWh9yA-w1CZP-0m-20" value="&lt;div&gt;&lt;span&gt;Наличие&amp;nbsp;&lt;/span&gt;&lt;/div&gt;&lt;div&gt;&lt;span&gt;товара&lt;/span&gt;&lt;/div&gt;" style="ellipse;whiteSpace=wrap;html=1;verticalAlign=top;align=center;" vertex="1" parent="kf9sjzUpPVL5YNyt-hcT-1">
          <mxGeometry x="525" y="675" width="105" height="50" as="geometry" />
        </mxCell>
        <mxCell id="VdGTEWWh9yA-w1CZP-0m-21" value="" style="edgeStyle=orthogonalEdgeStyle;rounded=0;orthogonalLoop=1;jettySize=auto;html=1;fontFamily=Georgia;fontSize=14;" edge="1" parent="kf9sjzUpPVL5YNyt-hcT-1" source="VdGTEWWh9yA-w1CZP-0m-22" target="VdGTEWWh9yA-w1CZP-0m-23">
          <mxGeometry relative="1" as="geometry" />
        </mxCell>
        <mxCell id="VdGTEWWh9yA-w1CZP-0m-22" value="&lt;font face=&quot;Comic Sans MS&quot;&gt;&lt;font style=&quot;font-size: 14px&quot;&gt;&lt;br&gt;&lt;/font&gt;&lt;font size=&quot;3&quot;&gt;Склад&lt;/font&gt;&lt;/font&gt;" style="shape=hexagon;perimeter=hexagonPerimeter2;whiteSpace=wrap;html=1;fixedSize=1;verticalAlign=top;" vertex="1" parent="kf9sjzUpPVL5YNyt-hcT-1">
          <mxGeometry x="685" y="662.5" width="120" height="75" as="geometry" />
        </mxCell>
        <mxCell id="VdGTEWWh9yA-w1CZP-0m-23" value="Отчет о&lt;br&gt;наличии&lt;br&gt;товара" style="ellipse;whiteSpace=wrap;html=1;verticalAlign=top;" vertex="1" parent="kf9sjzUpPVL5YNyt-hcT-1">
          <mxGeometry x="595" y="810" width="120" height="60" as="geometry" />
        </mxCell>
        <mxCell id="VdGTEWWh9yA-w1CZP-0m-24" value="" style="endArrow=open;endFill=1;endSize=12;html=1;rounded=0;fontFamily=Comic Sans MS;fontSize=14;exitX=0;exitY=0.5;exitDx=0;exitDy=0;" edge="1" parent="kf9sjzUpPVL5YNyt-hcT-1" source="VdGTEWWh9yA-w1CZP-0m-23">
          <mxGeometry width="160" relative="1" as="geometry">
            <mxPoint x="510" y="810" as="sourcePoint" />
            <mxPoint x="480" y="720" as="targetPoint" />
            <Array as="points">
              <mxPoint x="500" y="770" />
            </Array>
          </mxGeometry>
        </mxCell>
        <mxCell id="VdGTEWWh9yA-w1CZP-0m-25" value="&lt;br&gt;" style="text;html=1;align=center;verticalAlign=middle;resizable=0;points=[];autosize=1;strokeColor=none;fillColor=none;fontSize=10;fontFamily=Comic Sans MS;" vertex="1" parent="kf9sjzUpPVL5YNyt-hcT-1">
          <mxGeometry x="250" y="1080" width="20" height="20" as="geometry" />
        </mxCell>
        <mxCell id="OAmN7OPpZBYQlEwuYxZU-0" value="&lt;font style=&quot;font-size: 24px&quot;&gt;&amp;nbsp; &amp;nbsp; &amp;nbsp; &amp;nbsp; &amp;nbsp; &amp;nbsp; &amp;nbsp; &amp;nbsp; &amp;nbsp; &amp;nbsp; &amp;nbsp; &amp;nbsp; &amp;nbsp; &amp;nbsp; &amp;nbsp;Диаграмма классов&lt;/font&gt;" style="text;html=1;align=center;verticalAlign=middle;resizable=0;points=[];autosize=1;strokeColor=none;fillColor=none;fontSize=10;fontFamily=Comic Sans MS;" vertex="1" parent="kf9sjzUpPVL5YNyt-hcT-1">
          <mxGeometry x="45" y="1060" width="450" height="20" as="geometry" />
        </mxCell>
        <mxCell id="OAmN7OPpZBYQlEwuYxZU-21" value="" style="edgeStyle=orthogonalEdgeStyle;rounded=0;orthogonalLoop=1;jettySize=auto;html=1;fontFamily=Comic Sans MS;fontSize=24;" edge="1" parent="kf9sjzUpPVL5YNyt-hcT-1" source="OAmN7OPpZBYQlEwuYxZU-18" target="OAmN7OPpZBYQlEwuYxZU-20">
          <mxGeometry relative="1" as="geometry" />
        </mxCell>
        <mxCell id="OAmN7OPpZBYQlEwuYxZU-18" value="&lt;p style=&quot;margin: 0px ; margin-top: 4px ; text-align: center&quot;&gt;&lt;b&gt;Заказ&lt;/b&gt;&lt;/p&gt;&lt;hr size=&quot;1&quot;&gt;&lt;p style=&quot;margin: 0px ; margin-left: 4px&quot;&gt;- дата получения:Date&lt;/p&gt;&lt;p style=&quot;margin: 0px ; margin-left: 4px&quot;&gt;- Оплачен:Boolean&lt;/p&gt;&lt;p style=&quot;margin: 0px ; margin-left: 4px&quot;&gt;-номер:String&lt;/p&gt;&lt;p style=&quot;margin: 0px ; margin-left: 4px&quot;&gt;-цена:Decimal&lt;/p&gt;&lt;hr size=&quot;1&quot;&gt;&lt;p style=&quot;margin: 0px ; margin-left: 4px&quot;&gt;+ Отправить()&lt;/p&gt;&lt;p style=&quot;margin: 0px ; margin-left: 4px&quot;&gt;+Закрыть()&lt;/p&gt;&lt;p style=&quot;margin: 0px ; margin-left: 4px&quot;&gt;+Приготовиться()&lt;/p&gt;" style="verticalAlign=top;align=left;overflow=fill;fontSize=12;fontFamily=Helvetica;html=1;" vertex="1" parent="kf9sjzUpPVL5YNyt-hcT-1">
          <mxGeometry x="10" y="1110" width="140" height="160" as="geometry" />
        </mxCell>
        <mxCell id="OAmN7OPpZBYQlEwuYxZU-20" value="&lt;p style=&quot;margin: 0px ; margin-top: 4px ; text-align: center&quot;&gt;&lt;b&gt;Клиент&lt;/b&gt;&lt;/p&gt;&lt;hr size=&quot;1&quot;&gt;&lt;p style=&quot;margin: 0px ; margin-left: 4px&quot;&gt;- Имя:String&lt;/p&gt;&lt;p style=&quot;margin: 0px ; margin-left: 4px&quot;&gt;-Адрес:String&lt;/p&gt;&lt;hr size=&quot;1&quot;&gt;&lt;p style=&quot;margin: 0px ; margin-left: 4px&quot;&gt;+ Кредитный рейтинг():String&lt;/p&gt;&lt;p style=&quot;margin: 0px ; margin-left: 4px&quot;&gt;&lt;br&gt;&lt;/p&gt;&lt;p style=&quot;margin: 0px ; margin-left: 4px&quot;&gt;&lt;br&gt;&lt;/p&gt;" style="verticalAlign=top;align=left;overflow=fill;fontSize=12;fontFamily=Helvetica;html=1;" vertex="1" parent="kf9sjzUpPVL5YNyt-hcT-1">
          <mxGeometry x="480" y="1120" width="170" height="100" as="geometry" />
        </mxCell>
        <mxCell id="OAmN7OPpZBYQlEwuYxZU-22" value="" style="endArrow=none;html=1;rounded=0;fontFamily=Comic Sans MS;fontSize=24;" edge="1" parent="kf9sjzUpPVL5YNyt-hcT-1">
          <mxGeometry width="50" height="50" relative="1" as="geometry">
            <mxPoint x="75" y="1360" as="sourcePoint" />
            <mxPoint x="75" y="1270" as="targetPoint" />
          </mxGeometry>
        </mxCell>
        <mxCell id="OAmN7OPpZBYQlEwuYxZU-28" value="" style="edgeStyle=orthogonalEdgeStyle;rounded=0;orthogonalLoop=1;jettySize=auto;html=1;fontFamily=Comic Sans MS;fontSize=24;" edge="1" parent="kf9sjzUpPVL5YNyt-hcT-1" source="OAmN7OPpZBYQlEwuYxZU-23" target="OAmN7OPpZBYQlEwuYxZU-26">
          <mxGeometry relative="1" as="geometry">
            <mxPoint x="250" y="1530" as="targetPoint" />
          </mxGeometry>
        </mxCell>
        <mxCell id="OAmN7OPpZBYQlEwuYxZU-23" value="&lt;p style=&quot;margin: 0px ; margin-top: 4px ; text-align: center&quot;&gt;&lt;b&gt;Строка заказа&lt;/b&gt;&lt;/p&gt;&lt;hr size=&quot;1&quot;&gt;&lt;p style=&quot;margin: 0px ; margin-left: 4px&quot;&gt;- Количество:Int&lt;/p&gt;&lt;p style=&quot;margin: 0px ; margin-left: 4px&quot;&gt;-Цена :Decimal&lt;/p&gt;&lt;p style=&quot;margin: 0px ; margin-left: 4px&quot;&gt;-Обслужен:bool&lt;/p&gt;&lt;hr size=&quot;1&quot;&gt;&lt;p style=&quot;margin: 0px ; margin-left: 4px&quot;&gt;&lt;br&gt;&lt;/p&gt;&lt;p style=&quot;margin: 0px ; margin-left: 4px&quot;&gt;&lt;br&gt;&lt;/p&gt;&lt;p style=&quot;margin: 0px ; margin-left: 4px&quot;&gt;&lt;br&gt;&lt;/p&gt;" style="verticalAlign=top;align=left;overflow=fill;fontSize=12;fontFamily=Helvetica;html=1;" vertex="1" parent="kf9sjzUpPVL5YNyt-hcT-1">
          <mxGeometry x="-10" y="1360" width="170" height="110" as="geometry" />
        </mxCell>
        <mxCell id="OAmN7OPpZBYQlEwuYxZU-26" value="&lt;p style=&quot;margin: 0px ; margin-top: 4px ; text-align: center&quot;&gt;&lt;b&gt;Продукт&lt;/b&gt;&lt;/p&gt;&lt;hr size=&quot;1&quot;&gt;&lt;p style=&quot;margin: 0px ; margin-left: 4px&quot;&gt;&lt;br&gt;&lt;/p&gt;&lt;hr size=&quot;1&quot;&gt;&lt;p style=&quot;margin: 0px ; margin-left: 4px&quot;&gt;&lt;br&gt;&lt;/p&gt;&lt;p style=&quot;margin: 0px ; margin-left: 4px&quot;&gt;&lt;br&gt;&lt;/p&gt;&lt;p style=&quot;margin: 0px ; margin-left: 4px&quot;&gt;&lt;br&gt;&lt;/p&gt;" style="verticalAlign=top;align=left;overflow=fill;fontSize=12;fontFamily=Helvetica;html=1;" vertex="1" parent="kf9sjzUpPVL5YNyt-hcT-1">
          <mxGeometry x="345" y="1470" width="170" height="90" as="geometry" />
        </mxCell>
        <mxCell id="OAmN7OPpZBYQlEwuYxZU-32" value="" style="edgeStyle=orthogonalEdgeStyle;rounded=0;orthogonalLoop=1;jettySize=auto;html=1;fontFamily=Comic Sans MS;fontSize=24;entryX=0.171;entryY=1.05;entryDx=0;entryDy=0;entryPerimeter=0;" edge="1" parent="kf9sjzUpPVL5YNyt-hcT-1" source="OAmN7OPpZBYQlEwuYxZU-29" target="OAmN7OPpZBYQlEwuYxZU-20">
          <mxGeometry relative="1" as="geometry">
            <mxPoint x="352.5" y="1190" as="targetPoint" />
          </mxGeometry>
        </mxCell>
        <mxCell id="OAmN7OPpZBYQlEwuYxZU-29" value="&lt;p style=&quot;margin: 0px ; margin-top: 4px ; text-align: center&quot;&gt;&lt;b&gt;Постоянный клиент&lt;/b&gt;&lt;/p&gt;&lt;hr size=&quot;1&quot;&gt;&lt;p style=&quot;margin: 0px ; margin-left: 4px&quot;&gt;- Номер контракта:Int&lt;/p&gt;&lt;p style=&quot;margin: 0px ; margin-left: 4px&quot;&gt;-Кредитный рейтинг:string&lt;/p&gt;&lt;p style=&quot;margin: 0px ; margin-left: 4px&quot;&gt;Кредитный лимит:int&lt;/p&gt;&lt;hr size=&quot;1&quot;&gt;&lt;p style=&quot;margin: 0px ; margin-left: 4px&quot;&gt;&lt;br&gt;&lt;/p&gt;&lt;p style=&quot;margin: 0px ; margin-left: 4px&quot;&gt;&lt;br&gt;&lt;/p&gt;&lt;p style=&quot;margin: 0px ; margin-left: 4px&quot;&gt;&lt;br&gt;&lt;/p&gt;" style="verticalAlign=top;align=left;overflow=fill;fontSize=12;fontFamily=Helvetica;html=1;" vertex="1" parent="kf9sjzUpPVL5YNyt-hcT-1">
          <mxGeometry x="267.5" y="1290" width="170" height="110" as="geometry" />
        </mxCell>
        <mxCell id="OAmN7OPpZBYQlEwuYxZU-34" value="" style="edgeStyle=orthogonalEdgeStyle;rounded=0;orthogonalLoop=1;jettySize=auto;html=1;fontFamily=Comic Sans MS;fontSize=24;entryX=0.5;entryY=1;entryDx=0;entryDy=0;" edge="1" parent="kf9sjzUpPVL5YNyt-hcT-1" source="OAmN7OPpZBYQlEwuYxZU-30" target="OAmN7OPpZBYQlEwuYxZU-20">
          <mxGeometry relative="1" as="geometry">
            <mxPoint x="555" y="1340" as="targetPoint" />
            <Array as="points">
              <mxPoint x="565" y="1340" />
            </Array>
          </mxGeometry>
        </mxCell>
        <mxCell id="OAmN7OPpZBYQlEwuYxZU-30" value="&lt;p style=&quot;margin: 0px ; margin-top: 4px ; text-align: center&quot;&gt;&lt;b&gt;Частный клиент&lt;/b&gt;&lt;/p&gt;&lt;hr size=&quot;1&quot;&gt;&lt;p style=&quot;margin: 0px ; margin-left: 4px&quot;&gt;+Номер Кредитной Карты:int&lt;/p&gt;&lt;hr size=&quot;1&quot;&gt;&lt;p style=&quot;margin: 0px ; margin-left: 4px&quot;&gt;&lt;br&gt;&lt;/p&gt;&lt;p style=&quot;margin: 0px ; margin-left: 4px&quot;&gt;&lt;br&gt;&lt;/p&gt;&lt;p style=&quot;margin: 0px ; margin-left: 4px&quot;&gt;&lt;br&gt;&lt;/p&gt;" style="verticalAlign=top;align=left;overflow=fill;fontSize=12;fontFamily=Helvetica;html=1;" vertex="1" parent="kf9sjzUpPVL5YNyt-hcT-1">
          <mxGeometry x="635" y="1290" width="170" height="80" as="geometry" />
        </mxCell>
        <mxCell id="NNn1nUZmae2dhmbFO2pH-0" value="&lt;span style=&quot;color: rgb(44 , 45 , 48) ; font-family: &amp;#34;roboto&amp;#34; , &amp;#34;san francisco&amp;#34; , &amp;#34;helvetica neue&amp;#34; , &amp;#34;helvetica&amp;#34; , &amp;#34;arial&amp;#34; ; font-size: 15px ; text-align: left ; background-color: rgb(255 , 255 , 255)&quot;&gt;&lt;b&gt;&amp;nbsp; &amp;nbsp; &amp;nbsp; &amp;nbsp; &amp;nbsp; &amp;nbsp; &amp;nbsp; &amp;nbsp; &amp;nbsp; &amp;nbsp; &amp;nbsp; &amp;nbsp; &amp;nbsp; &amp;nbsp; &amp;nbsp; &amp;nbsp; &amp;nbsp; &amp;nbsp; &amp;nbsp; &amp;nbsp; &amp;nbsp; &amp;nbsp; &amp;nbsp; &amp;nbsp; &amp;nbsp; &amp;nbsp; &amp;nbsp; &amp;nbsp; &amp;nbsp; &amp;nbsp; &amp;nbsp; &amp;nbsp; Диаграмма вариантов использования (прецедентов)&lt;/b&gt;&lt;/span&gt;" style="text;html=1;align=center;verticalAlign=middle;resizable=0;points=[];autosize=1;strokeColor=none;fillColor=none;fontSize=24;fontFamily=Comic Sans MS;" vertex="1" parent="kf9sjzUpPVL5YNyt-hcT-1">
          <mxGeometry x="-25" y="560" width="630" height="40" as="geometry" />
        </mxCell>
      </root>
    </mxGraphModel>
  </diagram>
  <diagram name="use case diagram" id="IJPFwnLs11Ah0bEpLxg3">
    <mxGraphModel dx="1382" dy="764" grid="1" gridSize="10" guides="1" tooltips="1" connect="1" arrows="1" fold="1" page="1" pageScale="1" pageWidth="827" pageHeight="1169" math="0" shadow="0">
      <root>
        <mxCell id="0" />
        <mxCell id="1" parent="0" />
        <mxCell id="0DeJJJKvhB5ZLewfK-v5-3" value="" style="edgeStyle=orthogonalEdgeStyle;rounded=0;orthogonalLoop=1;jettySize=auto;html=1;" edge="1" parent="1" source="0DeJJJKvhB5ZLewfK-v5-1">
          <mxGeometry relative="1" as="geometry">
            <mxPoint x="85" y="190" as="targetPoint" />
            <Array as="points">
              <mxPoint x="85" y="180" />
            </Array>
          </mxGeometry>
        </mxCell>
        <mxCell id="0DeJJJKvhB5ZLewfK-v5-1" value="Клиент" style="shape=umlActor;verticalLabelPosition=bottom;verticalAlign=top;html=1;" vertex="1" parent="1">
          <mxGeometry x="70" y="20" width="30" height="60" as="geometry" />
        </mxCell>
        <mxCell id="0DeJJJKvhB5ZLewfK-v5-9" value="" style="edgeStyle=orthogonalEdgeStyle;rounded=0;orthogonalLoop=1;jettySize=auto;html=1;" edge="1" parent="1" source="0DeJJJKvhB5ZLewfK-v5-5">
          <mxGeometry relative="1" as="geometry">
            <mxPoint x="85" y="360" as="targetPoint" />
          </mxGeometry>
        </mxCell>
        <mxCell id="0DeJJJKvhB5ZLewfK-v5-5" value="Оплата товара" style="ellipse;whiteSpace=wrap;html=1;" vertex="1" parent="1">
          <mxGeometry x="45" y="190" width="80" height="60" as="geometry" />
        </mxCell>
        <mxCell id="0DeJJJKvhB5ZLewfK-v5-45" value="" style="edgeStyle=orthogonalEdgeStyle;rounded=0;orthogonalLoop=1;jettySize=auto;html=1;" edge="1" parent="1" source="0DeJJJKvhB5ZLewfK-v5-10" target="0DeJJJKvhB5ZLewfK-v5-44">
          <mxGeometry relative="1" as="geometry" />
        </mxCell>
        <mxCell id="0DeJJJKvhB5ZLewfK-v5-10" value="Касса" style="rounded=0;whiteSpace=wrap;html=1;" vertex="1" parent="1">
          <mxGeometry x="25" y="360" width="120" height="60" as="geometry" />
        </mxCell>
        <mxCell id="0DeJJJKvhB5ZLewfK-v5-13" value="" style="endArrow=classic;html=1;rounded=0;exitX=0.3;exitY=0;exitDx=0;exitDy=0;exitPerimeter=0;" edge="1" parent="1" source="0DeJJJKvhB5ZLewfK-v5-14" target="0DeJJJKvhB5ZLewfK-v5-1">
          <mxGeometry width="50" height="50" relative="1" as="geometry">
            <mxPoint x="180" y="100" as="sourcePoint" />
            <mxPoint x="195" y="20" as="targetPoint" />
            <Array as="points">
              <mxPoint x="120" y="70" />
            </Array>
          </mxGeometry>
        </mxCell>
        <mxCell id="0DeJJJKvhB5ZLewfK-v5-14" value="Выдача товара" style="ellipse;whiteSpace=wrap;html=1;" vertex="1" parent="1">
          <mxGeometry x="100" y="110" width="120" height="70" as="geometry" />
        </mxCell>
        <mxCell id="0DeJJJKvhB5ZLewfK-v5-24" value="" style="edgeStyle=orthogonalEdgeStyle;rounded=0;orthogonalLoop=1;jettySize=auto;html=1;" edge="1" parent="1" source="0DeJJJKvhB5ZLewfK-v5-18" target="0DeJJJKvhB5ZLewfK-v5-1">
          <mxGeometry relative="1" as="geometry" />
        </mxCell>
        <mxCell id="0DeJJJKvhB5ZLewfK-v5-18" value="Наличие товара&amp;nbsp;&lt;br&gt;на&lt;br&gt;складе" style="ellipse;whiteSpace=wrap;html=1;verticalAlign=top;" vertex="1" parent="1">
          <mxGeometry x="140" y="20" width="120" height="60" as="geometry" />
        </mxCell>
        <mxCell id="0DeJJJKvhB5ZLewfK-v5-25" value="" style="endArrow=open;endFill=1;endSize=12;html=1;rounded=0;entryX=0.633;entryY=0.783;entryDx=0;entryDy=0;entryPerimeter=0;" edge="1" parent="1" target="0DeJJJKvhB5ZLewfK-v5-1">
          <mxGeometry width="160" relative="1" as="geometry">
            <mxPoint x="280" y="120" as="sourcePoint" />
            <mxPoint x="320" y="90" as="targetPoint" />
          </mxGeometry>
        </mxCell>
        <mxCell id="0DeJJJKvhB5ZLewfK-v5-26" value="Выбор&lt;br&gt;продукции" style="ellipse;whiteSpace=wrap;html=1;" vertex="1" parent="1">
          <mxGeometry x="250" y="80" width="90" height="80" as="geometry" />
        </mxCell>
        <mxCell id="0DeJJJKvhB5ZLewfK-v5-27" value="" style="endArrow=open;endFill=1;endSize=12;html=1;rounded=0;" edge="1" parent="1">
          <mxGeometry width="160" relative="1" as="geometry">
            <mxPoint x="340" y="119.5" as="sourcePoint" />
            <mxPoint x="430" y="120" as="targetPoint" />
          </mxGeometry>
        </mxCell>
        <mxCell id="0DeJJJKvhB5ZLewfK-v5-32" value="" style="edgeStyle=orthogonalEdgeStyle;rounded=0;orthogonalLoop=1;jettySize=auto;html=1;entryX=0.683;entryY=1.014;entryDx=0;entryDy=0;entryPerimeter=0;" edge="1" parent="1" source="0DeJJJKvhB5ZLewfK-v5-28" target="0DeJJJKvhB5ZLewfK-v5-14">
          <mxGeometry relative="1" as="geometry">
            <mxPoint x="445" y="240" as="targetPoint" />
            <Array as="points">
              <mxPoint x="445" y="181" />
            </Array>
          </mxGeometry>
        </mxCell>
        <mxCell id="0DeJJJKvhB5ZLewfK-v5-51" value="" style="edgeStyle=orthogonalEdgeStyle;rounded=0;orthogonalLoop=1;jettySize=auto;html=1;" edge="1" parent="1" source="0DeJJJKvhB5ZLewfK-v5-28" target="0DeJJJKvhB5ZLewfK-v5-50">
          <mxGeometry relative="1" as="geometry" />
        </mxCell>
        <mxCell id="0DeJJJKvhB5ZLewfK-v5-28" value="Продавец" style="shape=umlActor;verticalLabelPosition=bottom;verticalAlign=top;html=1;" vertex="1" parent="1">
          <mxGeometry x="430" y="90" width="30" height="60" as="geometry" />
        </mxCell>
        <mxCell id="0DeJJJKvhB5ZLewfK-v5-41" value="" style="endArrow=classic;html=1;rounded=0;" edge="1" parent="1" target="0DeJJJKvhB5ZLewfK-v5-18">
          <mxGeometry width="50" height="50" relative="1" as="geometry">
            <mxPoint x="440" y="90" as="sourcePoint" />
            <mxPoint x="440" y="20" as="targetPoint" />
            <Array as="points">
              <mxPoint x="360" y="50" />
            </Array>
          </mxGeometry>
        </mxCell>
        <mxCell id="0DeJJJKvhB5ZLewfK-v5-47" value="" style="edgeStyle=orthogonalEdgeStyle;rounded=0;orthogonalLoop=1;jettySize=auto;html=1;" edge="1" parent="1" source="0DeJJJKvhB5ZLewfK-v5-44" target="0DeJJJKvhB5ZLewfK-v5-28">
          <mxGeometry relative="1" as="geometry">
            <mxPoint x="440" y="280" as="targetPoint" />
            <Array as="points">
              <mxPoint x="440" y="255" />
              <mxPoint x="460" y="255" />
            </Array>
          </mxGeometry>
        </mxCell>
        <mxCell id="0DeJJJKvhB5ZLewfK-v5-44" value="Отчет о оплате" style="rounded=0;whiteSpace=wrap;html=1;" vertex="1" parent="1">
          <mxGeometry x="380" y="360" width="120" height="60" as="geometry" />
        </mxCell>
        <mxCell id="0DeJJJKvhB5ZLewfK-v5-53" value="" style="edgeStyle=orthogonalEdgeStyle;rounded=0;orthogonalLoop=1;jettySize=auto;html=1;" edge="1" parent="1" source="0DeJJJKvhB5ZLewfK-v5-50" target="0DeJJJKvhB5ZLewfK-v5-52">
          <mxGeometry relative="1" as="geometry" />
        </mxCell>
        <mxCell id="0DeJJJKvhB5ZLewfK-v5-50" value="&lt;div&gt;&lt;span&gt;Наличие&amp;nbsp;&lt;/span&gt;&lt;/div&gt;&lt;div&gt;&lt;span&gt;товара&lt;/span&gt;&lt;/div&gt;" style="ellipse;whiteSpace=wrap;html=1;verticalAlign=top;align=center;" vertex="1" parent="1">
          <mxGeometry x="510" y="95" width="105" height="50" as="geometry" />
        </mxCell>
        <mxCell id="0DeJJJKvhB5ZLewfK-v5-55" value="" style="edgeStyle=orthogonalEdgeStyle;rounded=0;orthogonalLoop=1;jettySize=auto;html=1;fontFamily=Georgia;fontSize=14;" edge="1" parent="1" source="0DeJJJKvhB5ZLewfK-v5-52" target="0DeJJJKvhB5ZLewfK-v5-54">
          <mxGeometry relative="1" as="geometry" />
        </mxCell>
        <mxCell id="0DeJJJKvhB5ZLewfK-v5-52" value="&lt;font face=&quot;Comic Sans MS&quot;&gt;&lt;font style=&quot;font-size: 14px&quot;&gt;&lt;br&gt;&lt;/font&gt;&lt;font size=&quot;3&quot;&gt;Склад&lt;/font&gt;&lt;/font&gt;" style="shape=hexagon;perimeter=hexagonPerimeter2;whiteSpace=wrap;html=1;fixedSize=1;verticalAlign=top;" vertex="1" parent="1">
          <mxGeometry x="670" y="82.5" width="120" height="75" as="geometry" />
        </mxCell>
        <mxCell id="0DeJJJKvhB5ZLewfK-v5-54" value="Отчет о&lt;br&gt;наличии&lt;br&gt;товара" style="ellipse;whiteSpace=wrap;html=1;verticalAlign=top;" vertex="1" parent="1">
          <mxGeometry x="580" y="230" width="120" height="60" as="geometry" />
        </mxCell>
        <mxCell id="0DeJJJKvhB5ZLewfK-v5-59" value="" style="endArrow=open;endFill=1;endSize=12;html=1;rounded=0;fontFamily=Comic Sans MS;fontSize=14;exitX=0;exitY=0.5;exitDx=0;exitDy=0;" edge="1" parent="1" source="0DeJJJKvhB5ZLewfK-v5-54">
          <mxGeometry width="160" relative="1" as="geometry">
            <mxPoint x="495" y="230" as="sourcePoint" />
            <mxPoint x="465" y="140" as="targetPoint" />
            <Array as="points">
              <mxPoint x="485" y="190" />
            </Array>
          </mxGeometry>
        </mxCell>
      </root>
    </mxGraphModel>
  </diagram>
  <diagram name="Page-2" id="S62h2__s90usvBp9leXV">
    <mxGraphModel dx="2209" dy="764" grid="1" gridSize="10" guides="1" tooltips="1" connect="1" arrows="1" fold="1" page="1" pageScale="1" pageWidth="827" pageHeight="1169" math="0" shadow="0">
      <root>
        <mxCell id="kf9sjzUpPVL5YNyt-hcT-0" />
        <mxCell id="kf9sjzUpPVL5YNyt-hcT-1" parent="kf9sjzUpPVL5YNyt-hcT-0" />
        <mxCell id="xIHFGPNqID9P1mUKi1tC-0" value="Потенциальный&lt;br&gt;клиент" style="shape=umlActor;verticalLabelPosition=bottom;verticalAlign=top;html=1;fontFamily=Comic Sans MS;fontSize=14;" vertex="1" parent="kf9sjzUpPVL5YNyt-hcT-1">
          <mxGeometry x="50" y="100" width="30" height="60" as="geometry" />
        </mxCell>
        <mxCell id="xIHFGPNqID9P1mUKi1tC-1" value="&lt;font style=&quot;font-size: 18px&quot;&gt;&lt;b&gt;&amp;nbsp; &amp;nbsp; &amp;nbsp; &amp;nbsp; &amp;nbsp; &amp;nbsp; &amp;nbsp; &amp;nbsp; &amp;nbsp; &amp;nbsp; &amp;nbsp; &amp;nbsp;Диаграмма взаимодействия&lt;/b&gt;&lt;/font&gt;" style="text;html=1;align=center;verticalAlign=middle;resizable=0;points=[];autosize=1;strokeColor=none;fillColor=none;fontSize=14;fontFamily=Comic Sans MS;" vertex="1" parent="kf9sjzUpPVL5YNyt-hcT-1">
          <mxGeometry x="125" y="10" width="450" height="20" as="geometry" />
        </mxCell>
        <mxCell id="xIHFGPNqID9P1mUKi1tC-4" value="Коммерческий&lt;br&gt;отдел" style="rounded=1;whiteSpace=wrap;html=1;fontFamily=Comic Sans MS;fontSize=12;" vertex="1" parent="kf9sjzUpPVL5YNyt-hcT-1">
          <mxGeometry x="140" y="90" width="120" height="60" as="geometry" />
        </mxCell>
        <mxCell id="xIHFGPNqID9P1mUKi1tC-18" value="" style="edgeStyle=orthogonalEdgeStyle;rounded=0;orthogonalLoop=1;jettySize=auto;html=1;fontFamily=Comic Sans MS;fontSize=12;" edge="1" parent="kf9sjzUpPVL5YNyt-hcT-1" source="xIHFGPNqID9P1mUKi1tC-5" target="xIHFGPNqID9P1mUKi1tC-15">
          <mxGeometry relative="1" as="geometry" />
        </mxCell>
        <mxCell id="xIHFGPNqID9P1mUKi1tC-5" value="Отдел обслуживания&lt;br&gt;и&lt;br&gt;сбыта" style="rounded=1;whiteSpace=wrap;html=1;fontFamily=Comic Sans MS;fontSize=12;" vertex="1" parent="kf9sjzUpPVL5YNyt-hcT-1">
          <mxGeometry x="290" y="90" width="120" height="60" as="geometry" />
        </mxCell>
        <mxCell id="xIHFGPNqID9P1mUKi1tC-19" value="" style="edgeStyle=orthogonalEdgeStyle;rounded=0;orthogonalLoop=1;jettySize=auto;html=1;fontFamily=Comic Sans MS;fontSize=12;" edge="1" parent="kf9sjzUpPVL5YNyt-hcT-1" source="xIHFGPNqID9P1mUKi1tC-6" target="xIHFGPNqID9P1mUKi1tC-16">
          <mxGeometry relative="1" as="geometry" />
        </mxCell>
        <mxCell id="xIHFGPNqID9P1mUKi1tC-6" value="Транспортно-&lt;br&gt;хозяйственный&lt;br&gt;участок" style="rounded=1;whiteSpace=wrap;html=1;fontFamily=Comic Sans MS;fontSize=12;" vertex="1" parent="kf9sjzUpPVL5YNyt-hcT-1">
          <mxGeometry x="450" y="90" width="120" height="60" as="geometry" />
        </mxCell>
        <mxCell id="xIHFGPNqID9P1mUKi1tC-7" value="Перевозчик" style="rounded=1;whiteSpace=wrap;html=1;fontFamily=Comic Sans MS;fontSize=12;" vertex="1" parent="kf9sjzUpPVL5YNyt-hcT-1">
          <mxGeometry x="610" y="90" width="120" height="60" as="geometry" />
        </mxCell>
        <mxCell id="xIHFGPNqID9P1mUKi1tC-22" style="edgeStyle=orthogonalEdgeStyle;rounded=0;orthogonalLoop=1;jettySize=auto;html=1;entryX=0.223;entryY=1.011;entryDx=0;entryDy=0;entryPerimeter=0;fontFamily=Comic Sans MS;fontSize=10;exitX=0.206;exitY=-0.078;exitDx=0;exitDy=0;exitPerimeter=0;" edge="1" parent="kf9sjzUpPVL5YNyt-hcT-1" source="xIHFGPNqID9P1mUKi1tC-8" target="xIHFGPNqID9P1mUKi1tC-15">
          <mxGeometry relative="1" as="geometry">
            <Array as="points">
              <mxPoint x="209" y="281" />
              <mxPoint x="209" y="279" />
            </Array>
          </mxGeometry>
        </mxCell>
        <mxCell id="xIHFGPNqID9P1mUKi1tC-8" value="" style="rounded=0;whiteSpace=wrap;html=1;fontFamily=Comic Sans MS;fontSize=12;rotation=90;" vertex="1" parent="kf9sjzUpPVL5YNyt-hcT-1">
          <mxGeometry x="-107.5" y="371.25" width="345" height="22.5" as="geometry" />
        </mxCell>
        <mxCell id="xIHFGPNqID9P1mUKi1tC-13" value="" style="endArrow=none;dashed=1;html=1;rounded=0;fontFamily=Comic Sans MS;fontSize=12;" edge="1" parent="kf9sjzUpPVL5YNyt-hcT-1">
          <mxGeometry width="50" height="50" relative="1" as="geometry">
            <mxPoint x="200" y="230" as="sourcePoint" />
            <mxPoint x="200" y="150" as="targetPoint" />
          </mxGeometry>
        </mxCell>
        <mxCell id="xIHFGPNqID9P1mUKi1tC-20" style="edgeStyle=orthogonalEdgeStyle;rounded=0;orthogonalLoop=1;jettySize=auto;html=1;entryX=0.099;entryY=0.011;entryDx=0;entryDy=0;entryPerimeter=0;fontFamily=Comic Sans MS;fontSize=12;" edge="1" parent="kf9sjzUpPVL5YNyt-hcT-1" target="xIHFGPNqID9P1mUKi1tC-8">
          <mxGeometry relative="1" as="geometry">
            <mxPoint x="180" y="244" as="sourcePoint" />
            <Array as="points">
              <mxPoint x="133" y="244" />
            </Array>
          </mxGeometry>
        </mxCell>
        <mxCell id="xIHFGPNqID9P1mUKi1tC-14" value="" style="rounded=0;whiteSpace=wrap;html=1;fontFamily=Comic Sans MS;fontSize=12;rotation=90;" vertex="1" parent="kf9sjzUpPVL5YNyt-hcT-1">
          <mxGeometry x="41.88" y="385.63" width="316.25" height="22.5" as="geometry" />
        </mxCell>
        <mxCell id="xIHFGPNqID9P1mUKi1tC-25" style="edgeStyle=orthogonalEdgeStyle;rounded=0;orthogonalLoop=1;jettySize=auto;html=1;entryX=0.484;entryY=-0.033;entryDx=0;entryDy=0;entryPerimeter=0;fontFamily=Comic Sans MS;fontSize=10;" edge="1" parent="kf9sjzUpPVL5YNyt-hcT-1" source="xIHFGPNqID9P1mUKi1tC-15" target="xIHFGPNqID9P1mUKi1tC-8">
          <mxGeometry relative="1" as="geometry">
            <Array as="points">
              <mxPoint x="200" y="377" />
              <mxPoint x="200" y="377" />
            </Array>
          </mxGeometry>
        </mxCell>
        <mxCell id="xIHFGPNqID9P1mUKi1tC-15" value="" style="rounded=0;whiteSpace=wrap;html=1;fontFamily=Comic Sans MS;fontSize=12;rotation=90;" vertex="1" parent="kf9sjzUpPVL5YNyt-hcT-1">
          <mxGeometry x="175" y="366.25" width="355" height="22.5" as="geometry" />
        </mxCell>
        <mxCell id="xIHFGPNqID9P1mUKi1tC-16" value="" style="rounded=0;whiteSpace=wrap;html=1;fontFamily=Comic Sans MS;fontSize=12;rotation=90;" vertex="1" parent="kf9sjzUpPVL5YNyt-hcT-1">
          <mxGeometry x="338.13" y="368.13" width="355" height="18.75" as="geometry" />
        </mxCell>
        <mxCell id="xIHFGPNqID9P1mUKi1tC-17" value="" style="rounded=0;whiteSpace=wrap;html=1;fontFamily=Comic Sans MS;fontSize=12;rotation=90;" vertex="1" parent="kf9sjzUpPVL5YNyt-hcT-1">
          <mxGeometry x="490.32" y="360.95" width="355" height="26.87" as="geometry" />
        </mxCell>
        <mxCell id="xIHFGPNqID9P1mUKi1tC-21" value="&lt;font style=&quot;font-size: 10px&quot;&gt;Поиск покупателей&lt;/font&gt;" style="text;html=1;align=center;verticalAlign=middle;resizable=0;points=[];autosize=1;strokeColor=none;fillColor=none;fontSize=12;fontFamily=Comic Sans MS;" vertex="1" parent="kf9sjzUpPVL5YNyt-hcT-1">
          <mxGeometry x="80" y="220" width="110" height="20" as="geometry" />
        </mxCell>
        <mxCell id="xIHFGPNqID9P1mUKi1tC-23" value="&amp;nbsp; &amp;nbsp; &amp;nbsp; &amp;nbsp; &amp;nbsp; &amp;nbsp; &amp;nbsp; &amp;nbsp; &amp;nbsp; &amp;nbsp; &amp;nbsp; &amp;nbsp; &amp;nbsp; &amp;nbsp; &amp;nbsp; Звонок в компанию" style="text;html=1;align=center;verticalAlign=middle;resizable=0;points=[];autosize=1;strokeColor=none;fillColor=none;fontSize=10;fontFamily=Comic Sans MS;" vertex="1" parent="kf9sjzUpPVL5YNyt-hcT-1">
          <mxGeometry x="-10" y="260" width="200" height="20" as="geometry" />
        </mxCell>
        <mxCell id="xIHFGPNqID9P1mUKi1tC-24" value="&amp;nbsp; &amp;nbsp; &amp;nbsp; &amp;nbsp; &amp;nbsp; &amp;nbsp; &amp;nbsp; &amp;nbsp; &amp;nbsp; &amp;nbsp; &amp;nbsp; &amp;nbsp; &amp;nbsp; &amp;nbsp; &amp;nbsp; &amp;nbsp; &amp;nbsp;и выбор товара" style="text;html=1;align=center;verticalAlign=middle;resizable=0;points=[];autosize=1;strokeColor=none;fillColor=none;fontSize=10;fontFamily=Comic Sans MS;" vertex="1" parent="kf9sjzUpPVL5YNyt-hcT-1">
          <mxGeometry x="125" y="260" width="190" height="20" as="geometry" />
        </mxCell>
        <mxCell id="xIHFGPNqID9P1mUKi1tC-26" value="&amp;nbsp; &amp;nbsp; &amp;nbsp; &amp;nbsp; &amp;nbsp; &amp;nbsp; &amp;nbsp; &amp;nbsp; &amp;nbsp; &amp;nbsp; &amp;nbsp; &amp;nbsp; &amp;nbsp; &amp;nbsp;Предоставление&amp;nbsp;" style="text;html=1;align=center;verticalAlign=middle;resizable=0;points=[];autosize=1;strokeColor=none;fillColor=none;fontSize=10;fontFamily=Comic Sans MS;" vertex="1" parent="kf9sjzUpPVL5YNyt-hcT-1">
          <mxGeometry y="360" width="180" height="20" as="geometry" />
        </mxCell>
        <mxCell id="xIHFGPNqID9P1mUKi1tC-28" value="&lt;br&gt;&amp;nbsp; &amp;nbsp; &amp;nbsp;&amp;nbsp;&lt;br&gt;&amp;nbsp; &amp;nbsp; &amp;nbsp; &amp;nbsp;информации об&lt;br&gt;&amp;nbsp; &amp;nbsp; &amp;nbsp;ассортименте" style="text;html=1;align=center;verticalAlign=middle;resizable=0;points=[];autosize=1;strokeColor=none;fillColor=none;fontSize=10;fontFamily=Comic Sans MS;" vertex="1" parent="kf9sjzUpPVL5YNyt-hcT-1">
          <mxGeometry x="205" y="325" width="110" height="50" as="geometry" />
        </mxCell>
        <mxCell id="xIHFGPNqID9P1mUKi1tC-31" value="" style="endArrow=classic;html=1;rounded=0;fontFamily=Comic Sans MS;fontSize=10;entryX=0.727;entryY=1.011;entryDx=0;entryDy=0;entryPerimeter=0;" edge="1" parent="kf9sjzUpPVL5YNyt-hcT-1" target="xIHFGPNqID9P1mUKi1tC-16">
          <mxGeometry width="50" height="50" relative="1" as="geometry">
            <mxPoint x="80" y="458.13" as="sourcePoint" />
            <mxPoint x="130" y="408.13" as="targetPoint" />
          </mxGeometry>
        </mxCell>
        <mxCell id="xIHFGPNqID9P1mUKi1tC-32" value="&amp;nbsp; &amp;nbsp; &amp;nbsp; &amp;nbsp; &amp;nbsp; &amp;nbsp; &amp;nbsp; &amp;nbsp; &amp;nbsp; &amp;nbsp; &amp;nbsp; &amp;nbsp; &amp;nbsp; &amp;nbsp; &amp;nbsp; &amp;nbsp; &amp;nbsp; &amp;nbsp; &amp;nbsp; &amp;nbsp;Оплата заказа&lt;br&gt;&amp;nbsp; &amp;nbsp; &amp;nbsp; &amp;nbsp; &amp;nbsp; &amp;nbsp; &amp;nbsp; &amp;nbsp; &amp;nbsp; &amp;nbsp; &amp;nbsp; &amp;nbsp; &amp;nbsp; &amp;nbsp; &amp;nbsp; &amp;nbsp; &amp;nbsp; &amp;nbsp; &amp;nbsp;и получение" style="text;html=1;align=center;verticalAlign=middle;resizable=0;points=[];autosize=1;strokeColor=none;fillColor=none;fontSize=10;fontFamily=Comic Sans MS;" vertex="1" parent="kf9sjzUpPVL5YNyt-hcT-1">
          <mxGeometry x="280" y="425" width="200" height="30" as="geometry" />
        </mxCell>
        <mxCell id="xIHFGPNqID9P1mUKi1tC-34" value="" style="endArrow=classic;html=1;rounded=0;fontFamily=Comic Sans MS;fontSize=10;entryX=0.904;entryY=0.011;entryDx=0;entryDy=0;entryPerimeter=0;" edge="1" parent="kf9sjzUpPVL5YNyt-hcT-1" target="xIHFGPNqID9P1mUKi1tC-8">
          <mxGeometry width="50" height="50" relative="1" as="geometry">
            <mxPoint x="650" y="522" as="sourcePoint" />
            <mxPoint x="650" y="470" as="targetPoint" />
          </mxGeometry>
        </mxCell>
        <mxCell id="xIHFGPNqID9P1mUKi1tC-35" value="&amp;nbsp; &amp;nbsp; &amp;nbsp; &amp;nbsp; &amp;nbsp; &amp;nbsp; &amp;nbsp; &amp;nbsp; &amp;nbsp; &amp;nbsp; &amp;nbsp; &amp;nbsp; &amp;nbsp; &amp;nbsp; &amp;nbsp; &amp;nbsp; &amp;nbsp; &amp;nbsp; Передача заказа клиенту," style="text;html=1;align=center;verticalAlign=middle;resizable=0;points=[];autosize=1;strokeColor=none;fillColor=none;fontSize=10;fontFamily=Comic Sans MS;" vertex="1" parent="kf9sjzUpPVL5YNyt-hcT-1">
          <mxGeometry x="255" y="490" width="250" height="20" as="geometry" />
        </mxCell>
        <mxCell id="xIHFGPNqID9P1mUKi1tC-37" value="&amp;nbsp; &amp;nbsp; &amp;nbsp; &amp;nbsp; &amp;nbsp; &amp;nbsp; &amp;nbsp; &amp;nbsp; &amp;nbsp; &amp;nbsp; &amp;nbsp; &amp;nbsp; &amp;nbsp; &amp;nbsp; &amp;nbsp; &amp;nbsp;&lt;br&gt;&lt;br&gt;&amp;nbsp; &amp;nbsp; &amp;nbsp; &amp;nbsp; &amp;nbsp; &amp;nbsp; &amp;nbsp; &amp;nbsp; &amp;nbsp; &amp;nbsp; &amp;nbsp; &amp;nbsp; &amp;nbsp; &amp;nbsp; &amp;nbsp; получение денег" style="text;html=1;align=center;verticalAlign=middle;resizable=0;points=[];autosize=1;strokeColor=none;fillColor=none;fontSize=10;fontFamily=Comic Sans MS;" vertex="1" parent="kf9sjzUpPVL5YNyt-hcT-1">
          <mxGeometry x="445" y="470" width="190" height="40" as="geometry" />
        </mxCell>
        <mxCell id="xIHFGPNqID9P1mUKi1tC-40" value="&lt;br&gt;&amp;nbsp; &amp;nbsp; &amp;nbsp; &amp;nbsp; &amp;nbsp; &amp;nbsp; &amp;nbsp; &amp;nbsp; &amp;nbsp; &amp;nbsp; &amp;nbsp; &amp;nbsp; &amp;nbsp;&amp;nbsp;" style="text;html=1;align=center;verticalAlign=middle;resizable=0;points=[];autosize=1;strokeColor=none;fillColor=none;fontSize=10;fontFamily=Comic Sans MS;" vertex="1" parent="kf9sjzUpPVL5YNyt-hcT-1">
          <mxGeometry x="495" y="315" width="90" height="30" as="geometry" />
        </mxCell>
        <mxCell id="xIHFGPNqID9P1mUKi1tC-41" value="" style="endArrow=classic;html=1;rounded=0;fontFamily=Comic Sans MS;fontSize=10;entryX=0.42;entryY=0.94;entryDx=0;entryDy=0;entryPerimeter=0;" edge="1" parent="kf9sjzUpPVL5YNyt-hcT-1" target="xIHFGPNqID9P1mUKi1tC-17">
          <mxGeometry width="50" height="50" relative="1" as="geometry">
            <mxPoint x="525" y="345" as="sourcePoint" />
            <mxPoint x="575" y="295" as="targetPoint" />
          </mxGeometry>
        </mxCell>
        <mxCell id="xIHFGPNqID9P1mUKi1tC-42" value="&lt;br&gt;&lt;br&gt;&lt;br&gt;&amp;nbsp; &amp;nbsp; &amp;nbsp; &lt;br&gt;&amp;nbsp; &amp;nbsp; &amp;nbsp; &amp;nbsp; Снаряжение грузом&lt;br&gt;&amp;nbsp; &amp;nbsp; &amp;nbsp; и&lt;br&gt;&amp;nbsp; &amp;nbsp; &amp;nbsp; &amp;nbsp; &amp;nbsp;инструкций" style="text;html=1;align=center;verticalAlign=middle;resizable=0;points=[];autosize=1;strokeColor=none;fillColor=none;fontSize=10;fontFamily=Comic Sans MS;" vertex="1" parent="kf9sjzUpPVL5YNyt-hcT-1">
          <mxGeometry x="505" y="255" width="130" height="90" as="geometry" />
        </mxCell>
        <mxCell id="xIHFGPNqID9P1mUKi1tC-44" value="" style="endArrow=classic;html=1;rounded=0;fontFamily=Comic Sans MS;fontSize=10;entryX=0.015;entryY=0.278;entryDx=0;entryDy=0;entryPerimeter=0;" edge="1" parent="kf9sjzUpPVL5YNyt-hcT-1" target="xIHFGPNqID9P1mUKi1tC-42">
          <mxGeometry width="50" height="50" relative="1" as="geometry">
            <mxPoint x="364" y="280" as="sourcePoint" />
            <mxPoint x="414" y="230" as="targetPoint" />
          </mxGeometry>
        </mxCell>
        <mxCell id="xIHFGPNqID9P1mUKi1tC-45" value="&amp;nbsp; &amp;nbsp; &amp;nbsp; &amp;nbsp; &amp;nbsp; &amp;nbsp; &amp;nbsp; &amp;nbsp; &amp;nbsp; &amp;nbsp; &amp;nbsp; &amp;nbsp; &amp;nbsp; &amp;nbsp; &amp;nbsp; &amp;nbsp; &amp;nbsp; &amp;nbsp;Предоставление информации&lt;br&gt;&amp;nbsp; &amp;nbsp; &amp;nbsp; &amp;nbsp; &amp;nbsp; &amp;nbsp; &amp;nbsp; &amp;nbsp; &amp;nbsp; &amp;nbsp; &amp;nbsp; &amp;nbsp; &amp;nbsp; &amp;nbsp; &amp;nbsp; &amp;nbsp; &amp;nbsp; &amp;nbsp; &amp;nbsp; о&lt;br&gt;&amp;nbsp; &amp;nbsp; &amp;nbsp; &amp;nbsp; &amp;nbsp; &amp;nbsp; &amp;nbsp; &amp;nbsp; &amp;nbsp; &amp;nbsp; &amp;nbsp; &amp;nbsp; &amp;nbsp; &amp;nbsp; &amp;nbsp; &amp;nbsp; &amp;nbsp; &amp;nbsp; &amp;nbsp; заказе и клиенте" style="text;html=1;align=center;verticalAlign=middle;resizable=0;points=[];autosize=1;strokeColor=none;fillColor=none;fontSize=10;fontFamily=Comic Sans MS;" vertex="1" parent="kf9sjzUpPVL5YNyt-hcT-1">
          <mxGeometry x="245" y="220" width="270" height="40" as="geometry" />
        </mxCell>
        <mxCell id="xIHFGPNqID9P1mUKi1tC-46" value="" style="endArrow=classic;html=1;rounded=0;fontFamily=Comic Sans MS;fontSize=10;" edge="1" parent="kf9sjzUpPVL5YNyt-hcT-1" target="xIHFGPNqID9P1mUKi1tC-47">
          <mxGeometry width="50" height="50" relative="1" as="geometry">
            <mxPoint x="364" y="380" as="sourcePoint" />
            <mxPoint x="400" y="380" as="targetPoint" />
          </mxGeometry>
        </mxCell>
        <mxCell id="xIHFGPNqID9P1mUKi1tC-49" value="" style="edgeStyle=orthogonalEdgeStyle;rounded=0;orthogonalLoop=1;jettySize=auto;html=1;fontFamily=Comic Sans MS;fontSize=10;" edge="1" parent="kf9sjzUpPVL5YNyt-hcT-1" source="xIHFGPNqID9P1mUKi1tC-47">
          <mxGeometry relative="1" as="geometry">
            <mxPoint x="650" y="383" as="targetPoint" />
          </mxGeometry>
        </mxCell>
        <mxCell id="xIHFGPNqID9P1mUKi1tC-47" value="Заказ" style="rounded=0;whiteSpace=wrap;html=1;fontFamily=Comic Sans MS;fontSize=10;" vertex="1" parent="kf9sjzUpPVL5YNyt-hcT-1">
          <mxGeometry x="375" y="352.5" width="65" height="60" as="geometry" />
        </mxCell>
        <mxCell id="xIHFGPNqID9P1mUKi1tC-50" value="&amp;nbsp; &amp;nbsp; &amp;nbsp; &amp;nbsp; &amp;nbsp; &amp;nbsp; &amp;nbsp; &lt;br&gt;&amp;nbsp; &amp;nbsp; &amp;nbsp; &amp;nbsp; &lt;br&gt;&amp;nbsp; &amp;nbsp; &amp;nbsp; &amp;nbsp; &amp;nbsp; &amp;nbsp; &amp;nbsp; &amp;nbsp; Создать()" style="text;html=1;align=center;verticalAlign=middle;resizable=0;points=[];autosize=1;strokeColor=none;fillColor=none;fontSize=10;fontFamily=Comic Sans MS;" vertex="1" parent="kf9sjzUpPVL5YNyt-hcT-1">
          <mxGeometry x="325" y="310" width="110" height="40" as="geometry" />
        </mxCell>
        <mxCell id="VdGTEWWh9yA-w1CZP-0m-0" value="" style="edgeStyle=orthogonalEdgeStyle;rounded=0;orthogonalLoop=1;jettySize=auto;html=1;" edge="1" parent="kf9sjzUpPVL5YNyt-hcT-1" source="VdGTEWWh9yA-w1CZP-0m-1">
          <mxGeometry relative="1" as="geometry">
            <mxPoint x="100" y="770" as="targetPoint" />
            <Array as="points">
              <mxPoint x="100" y="760" />
            </Array>
          </mxGeometry>
        </mxCell>
        <mxCell id="VdGTEWWh9yA-w1CZP-0m-1" value="Клиент" style="shape=umlActor;verticalLabelPosition=bottom;verticalAlign=top;html=1;" vertex="1" parent="kf9sjzUpPVL5YNyt-hcT-1">
          <mxGeometry x="85" y="600" width="30" height="60" as="geometry" />
        </mxCell>
        <mxCell id="VdGTEWWh9yA-w1CZP-0m-2" value="" style="edgeStyle=orthogonalEdgeStyle;rounded=0;orthogonalLoop=1;jettySize=auto;html=1;" edge="1" parent="kf9sjzUpPVL5YNyt-hcT-1" source="VdGTEWWh9yA-w1CZP-0m-3">
          <mxGeometry relative="1" as="geometry">
            <mxPoint x="100" y="940" as="targetPoint" />
          </mxGeometry>
        </mxCell>
        <mxCell id="VdGTEWWh9yA-w1CZP-0m-3" value="Оплата товара" style="ellipse;whiteSpace=wrap;html=1;" vertex="1" parent="kf9sjzUpPVL5YNyt-hcT-1">
          <mxGeometry x="60" y="770" width="80" height="60" as="geometry" />
        </mxCell>
        <mxCell id="VdGTEWWh9yA-w1CZP-0m-4" value="" style="edgeStyle=orthogonalEdgeStyle;rounded=0;orthogonalLoop=1;jettySize=auto;html=1;" edge="1" parent="kf9sjzUpPVL5YNyt-hcT-1" source="VdGTEWWh9yA-w1CZP-0m-5" target="VdGTEWWh9yA-w1CZP-0m-18">
          <mxGeometry relative="1" as="geometry" />
        </mxCell>
        <mxCell id="VdGTEWWh9yA-w1CZP-0m-5" value="Касса" style="rounded=0;whiteSpace=wrap;html=1;" vertex="1" parent="kf9sjzUpPVL5YNyt-hcT-1">
          <mxGeometry x="40" y="940" width="120" height="60" as="geometry" />
        </mxCell>
        <mxCell id="VdGTEWWh9yA-w1CZP-0m-6" value="" style="endArrow=classic;html=1;rounded=0;exitX=0.3;exitY=0;exitDx=0;exitDy=0;exitPerimeter=0;" edge="1" parent="kf9sjzUpPVL5YNyt-hcT-1" source="VdGTEWWh9yA-w1CZP-0m-7" target="VdGTEWWh9yA-w1CZP-0m-1">
          <mxGeometry width="50" height="50" relative="1" as="geometry">
            <mxPoint x="195" y="680" as="sourcePoint" />
            <mxPoint x="210" y="600" as="targetPoint" />
            <Array as="points">
              <mxPoint x="135" y="650" />
            </Array>
          </mxGeometry>
        </mxCell>
        <mxCell id="VdGTEWWh9yA-w1CZP-0m-7" value="Выдача товара" style="ellipse;whiteSpace=wrap;html=1;" vertex="1" parent="kf9sjzUpPVL5YNyt-hcT-1">
          <mxGeometry x="115" y="690" width="120" height="70" as="geometry" />
        </mxCell>
        <mxCell id="VdGTEWWh9yA-w1CZP-0m-8" value="" style="edgeStyle=orthogonalEdgeStyle;rounded=0;orthogonalLoop=1;jettySize=auto;html=1;" edge="1" parent="kf9sjzUpPVL5YNyt-hcT-1" source="VdGTEWWh9yA-w1CZP-0m-9" target="VdGTEWWh9yA-w1CZP-0m-1">
          <mxGeometry relative="1" as="geometry" />
        </mxCell>
        <mxCell id="VdGTEWWh9yA-w1CZP-0m-9" value="Наличие товара&amp;nbsp;&lt;br&gt;на&lt;br&gt;складе" style="ellipse;whiteSpace=wrap;html=1;verticalAlign=top;" vertex="1" parent="kf9sjzUpPVL5YNyt-hcT-1">
          <mxGeometry x="155" y="600" width="120" height="60" as="geometry" />
        </mxCell>
        <mxCell id="VdGTEWWh9yA-w1CZP-0m-10" value="" style="endArrow=open;endFill=1;endSize=12;html=1;rounded=0;entryX=0.633;entryY=0.783;entryDx=0;entryDy=0;entryPerimeter=0;" edge="1" parent="kf9sjzUpPVL5YNyt-hcT-1" target="VdGTEWWh9yA-w1CZP-0m-1">
          <mxGeometry width="160" relative="1" as="geometry">
            <mxPoint x="295" y="700" as="sourcePoint" />
            <mxPoint x="335" y="670" as="targetPoint" />
          </mxGeometry>
        </mxCell>
        <mxCell id="VdGTEWWh9yA-w1CZP-0m-11" value="Выбор&lt;br&gt;продукции" style="ellipse;whiteSpace=wrap;html=1;" vertex="1" parent="kf9sjzUpPVL5YNyt-hcT-1">
          <mxGeometry x="265" y="660" width="90" height="80" as="geometry" />
        </mxCell>
        <mxCell id="VdGTEWWh9yA-w1CZP-0m-12" value="" style="endArrow=open;endFill=1;endSize=12;html=1;rounded=0;" edge="1" parent="kf9sjzUpPVL5YNyt-hcT-1">
          <mxGeometry width="160" relative="1" as="geometry">
            <mxPoint x="355" y="699.5" as="sourcePoint" />
            <mxPoint x="445" y="700" as="targetPoint" />
          </mxGeometry>
        </mxCell>
        <mxCell id="VdGTEWWh9yA-w1CZP-0m-13" value="" style="edgeStyle=orthogonalEdgeStyle;rounded=0;orthogonalLoop=1;jettySize=auto;html=1;entryX=0.683;entryY=1.014;entryDx=0;entryDy=0;entryPerimeter=0;" edge="1" parent="kf9sjzUpPVL5YNyt-hcT-1" source="VdGTEWWh9yA-w1CZP-0m-15" target="VdGTEWWh9yA-w1CZP-0m-7">
          <mxGeometry relative="1" as="geometry">
            <mxPoint x="460" y="820" as="targetPoint" />
            <Array as="points">
              <mxPoint x="460" y="761" />
            </Array>
          </mxGeometry>
        </mxCell>
        <mxCell id="VdGTEWWh9yA-w1CZP-0m-14" value="" style="edgeStyle=orthogonalEdgeStyle;rounded=0;orthogonalLoop=1;jettySize=auto;html=1;" edge="1" parent="kf9sjzUpPVL5YNyt-hcT-1" source="VdGTEWWh9yA-w1CZP-0m-15" target="VdGTEWWh9yA-w1CZP-0m-20">
          <mxGeometry relative="1" as="geometry" />
        </mxCell>
        <mxCell id="VdGTEWWh9yA-w1CZP-0m-15" value="Продавец" style="shape=umlActor;verticalLabelPosition=bottom;verticalAlign=top;html=1;" vertex="1" parent="kf9sjzUpPVL5YNyt-hcT-1">
          <mxGeometry x="445" y="670" width="30" height="60" as="geometry" />
        </mxCell>
        <mxCell id="VdGTEWWh9yA-w1CZP-0m-16" value="" style="endArrow=classic;html=1;rounded=0;" edge="1" parent="kf9sjzUpPVL5YNyt-hcT-1" target="VdGTEWWh9yA-w1CZP-0m-9">
          <mxGeometry width="50" height="50" relative="1" as="geometry">
            <mxPoint x="455" y="670" as="sourcePoint" />
            <mxPoint x="455" y="600" as="targetPoint" />
            <Array as="points">
              <mxPoint x="375" y="630" />
            </Array>
          </mxGeometry>
        </mxCell>
        <mxCell id="VdGTEWWh9yA-w1CZP-0m-17" value="" style="edgeStyle=orthogonalEdgeStyle;rounded=0;orthogonalLoop=1;jettySize=auto;html=1;" edge="1" parent="kf9sjzUpPVL5YNyt-hcT-1" source="VdGTEWWh9yA-w1CZP-0m-18" target="VdGTEWWh9yA-w1CZP-0m-15">
          <mxGeometry relative="1" as="geometry">
            <mxPoint x="455" y="860" as="targetPoint" />
            <Array as="points">
              <mxPoint x="455" y="835" />
              <mxPoint x="475" y="835" />
            </Array>
          </mxGeometry>
        </mxCell>
        <mxCell id="VdGTEWWh9yA-w1CZP-0m-18" value="Отчет о оплате" style="rounded=0;whiteSpace=wrap;html=1;" vertex="1" parent="kf9sjzUpPVL5YNyt-hcT-1">
          <mxGeometry x="395" y="940" width="120" height="60" as="geometry" />
        </mxCell>
        <mxCell id="VdGTEWWh9yA-w1CZP-0m-19" value="" style="edgeStyle=orthogonalEdgeStyle;rounded=0;orthogonalLoop=1;jettySize=auto;html=1;" edge="1" parent="kf9sjzUpPVL5YNyt-hcT-1" source="VdGTEWWh9yA-w1CZP-0m-20" target="VdGTEWWh9yA-w1CZP-0m-22">
          <mxGeometry relative="1" as="geometry" />
        </mxCell>
        <mxCell id="VdGTEWWh9yA-w1CZP-0m-20" value="&lt;div&gt;&lt;span&gt;Наличие&amp;nbsp;&lt;/span&gt;&lt;/div&gt;&lt;div&gt;&lt;span&gt;товара&lt;/span&gt;&lt;/div&gt;" style="ellipse;whiteSpace=wrap;html=1;verticalAlign=top;align=center;" vertex="1" parent="kf9sjzUpPVL5YNyt-hcT-1">
          <mxGeometry x="525" y="675" width="105" height="50" as="geometry" />
        </mxCell>
        <mxCell id="VdGTEWWh9yA-w1CZP-0m-21" value="" style="edgeStyle=orthogonalEdgeStyle;rounded=0;orthogonalLoop=1;jettySize=auto;html=1;fontFamily=Georgia;fontSize=14;" edge="1" parent="kf9sjzUpPVL5YNyt-hcT-1" source="VdGTEWWh9yA-w1CZP-0m-22" target="VdGTEWWh9yA-w1CZP-0m-23">
          <mxGeometry relative="1" as="geometry" />
        </mxCell>
        <mxCell id="VdGTEWWh9yA-w1CZP-0m-22" value="&lt;font face=&quot;Comic Sans MS&quot;&gt;&lt;font style=&quot;font-size: 14px&quot;&gt;&lt;br&gt;&lt;/font&gt;&lt;font size=&quot;3&quot;&gt;Склад&lt;/font&gt;&lt;/font&gt;" style="shape=hexagon;perimeter=hexagonPerimeter2;whiteSpace=wrap;html=1;fixedSize=1;verticalAlign=top;" vertex="1" parent="kf9sjzUpPVL5YNyt-hcT-1">
          <mxGeometry x="685" y="662.5" width="120" height="75" as="geometry" />
        </mxCell>
        <mxCell id="VdGTEWWh9yA-w1CZP-0m-23" value="Отчет о&lt;br&gt;наличии&lt;br&gt;товара" style="ellipse;whiteSpace=wrap;html=1;verticalAlign=top;" vertex="1" parent="kf9sjzUpPVL5YNyt-hcT-1">
          <mxGeometry x="595" y="810" width="120" height="60" as="geometry" />
        </mxCell>
        <mxCell id="VdGTEWWh9yA-w1CZP-0m-24" value="" style="endArrow=open;endFill=1;endSize=12;html=1;rounded=0;fontFamily=Comic Sans MS;fontSize=14;exitX=0;exitY=0.5;exitDx=0;exitDy=0;" edge="1" parent="kf9sjzUpPVL5YNyt-hcT-1" source="VdGTEWWh9yA-w1CZP-0m-23">
          <mxGeometry width="160" relative="1" as="geometry">
            <mxPoint x="510" y="810" as="sourcePoint" />
            <mxPoint x="480" y="720" as="targetPoint" />
            <Array as="points">
              <mxPoint x="500" y="770" />
            </Array>
          </mxGeometry>
        </mxCell>
        <mxCell id="VdGTEWWh9yA-w1CZP-0m-25" value="&lt;br&gt;" style="text;html=1;align=center;verticalAlign=middle;resizable=0;points=[];autosize=1;strokeColor=none;fillColor=none;fontSize=10;fontFamily=Comic Sans MS;" vertex="1" parent="kf9sjzUpPVL5YNyt-hcT-1">
          <mxGeometry x="250" y="1080" width="20" height="20" as="geometry" />
        </mxCell>
      </root>
    </mxGraphModel>
  </diagram>
</mxfile>
